<svg width="48" height="47" viewBox="0 0 48 47" fill="none" xmlns="http://www.w3.org/2000/svg">
<path d="M45.4987 1.10047C44.4015 0.346878 43.0838 -0.038196 41.7437 0.00299132C29.9411 0.00299132 18.1386 0.00299132 6.33606 0.00299132C2.73918 0.00299132 0.640402 2.34103 0.177945 4.8105L0 5.73796V41.1839C0.0750998 41.5704 0.146278 41.9568 0.229283 42.3433C0.498201 43.5443 1.15242 44.6299 2.09665 45.4419C3.04087 46.2539 4.22572 46.7495 5.47837 46.857C5.62859 46.8833 5.77557 46.9249 5.91706 46.9808H24.0478C24.0478 46.7837 24.0043 46.5942 24.0043 46.3894C24.0043 41.417 24.0043 36.4433 24.0043 31.4683C24.0043 30.8654 24.0043 30.8654 23.3838 30.8654H18.0161V23.4493C18.1821 23.4493 18.36 23.4301 18.5378 23.4301H23.3284C23.9845 23.4301 23.9846 23.43 23.9846 22.8117C23.9846 20.9915 23.9846 19.1712 23.9846 17.3471C24.0368 15.2754 24.8335 13.2878 26.2349 11.7331C27.6364 10.1784 29.5531 9.15595 31.6487 8.84509C32.0811 8.78842 32.5168 8.75874 32.953 8.75621C34.8029 8.75621 36.6487 8.75621 38.4867 8.75621H39.0677V16.1917C38.6725 16.1917 38.3009 16.1917 37.9333 16.1917C36.8226 16.2149 35.708 16.1917 34.6052 16.2729C33.5024 16.354 33.1348 16.6592 33.1032 17.7838C33.0558 19.5576 33.1033 21.3354 33.0835 23.1093C33.0835 23.461 33.3167 23.4494 33.5618 23.4455H40.6171C40.546 23.6658 40.5144 23.8087 40.4551 23.9479C39.5737 26.1043 38.6844 28.2606 37.8148 30.4248C37.7746 30.5763 37.6784 30.7079 37.5449 30.7943C37.4113 30.8806 37.2498 30.9157 37.0914 30.8926C35.9491 30.8655 34.8029 30.8925 33.6606 30.8731C33.21 30.8731 33.0756 31.0008 33.0796 31.4413C33.0796 36.4292 33.0796 41.4184 33.0796 46.4088C33.0796 46.6059 33.0518 46.7952 33.036 47H42.1271L43.2615 46.7836C44.5115 46.53 45.6426 45.8844 46.4831 44.9449C47.3235 44.0053 47.8272 42.8232 47.9176 41.5781C47.965 40.8631 47.9967 40.1442 47.9967 39.4254C47.9967 28.3959 47.9967 17.3652 47.9967 6.33312C48.056 4.16895 47.309 2.38351 45.4987 1.10047Z" fill="#778D7E"/>
</svg>
