<svg width="48" height="48" viewBox="0 0 48 48" fill="none" xmlns="http://www.w3.org/2000/svg">
<path d="M47.3855 14.0136V33.1261C47.3547 33.3379 47.3239 33.5497 47.3008 33.7615C47.1737 34.8013 47.1237 35.8602 46.9157 36.8846C45.9722 41.4211 43.4074 44.6443 39.0481 46.3426C36.957 47.1552 34.7582 47.3785 32.54 47.4016C27.5337 47.4517 22.4928 47.498 17.4673 47.471C14.9988 47.471 12.5187 47.4478 10.0926 46.8586C6.16077 45.9036 3.24171 43.6739 1.50492 39.9962C0.434348 37.728 0.110888 35.2942 0.0839315 32.8219C0.0300178 27.6885 -0.0277206 22.5552 0.0146402 17.418C0.0181134 15.2559 0.172509 13.0965 0.476739 10.9559C0.689513 9.34782 1.22534 7.79948 2.05192 6.40376C2.8785 5.00804 3.97875 3.79383 5.28661 2.83427C7.61645 1.08592 10.3121 0.392702 13.1657 0.1886C14.321 0.10773 15.4455 0.0616157 16.5854 0H30.7801C31.8892 0.0616157 32.9983 0.119373 34.1035 0.184839C36.0367 0.255337 37.9407 0.678077 39.722 1.43246C44.089 3.39646 46.3881 6.89699 47.1044 11.5336C47.2277 12.3577 47.2893 13.201 47.3855 14.0136ZM23.7174 43.3081V43.2387C24.969 43.2387 26.2244 43.2734 27.476 43.2387C30.1717 43.1386 32.8982 43.1732 35.5631 42.8536C39.2138 42.3915 41.6861 40.2811 42.5757 36.6458C42.9109 35.1542 43.0813 33.6305 43.0839 32.1017C43.1712 27.7116 43.1983 23.3214 43.1649 18.9313C43.169 16.6288 43.0494 14.3278 42.8067 12.0381C42.3523 8.20635 39.9531 5.62238 36.156 4.86374C34.5158 4.56445 32.8518 4.41487 31.1844 4.41697C26.7635 4.35022 22.3413 4.34249 17.9178 4.39384C15.818 4.38328 13.7197 4.51193 11.6369 4.77894C8.00925 5.30267 5.53693 7.66342 4.80909 11.2333C4.51427 12.7966 4.35963 14.3831 4.34699 15.9739C4.26484 19.8043 4.24176 23.6373 4.2777 27.4728C4.30851 30.13 4.3778 32.7949 4.63582 35.4367C4.90153 38.1555 6.17615 40.3659 8.62538 41.7715C10.107 42.5919 11.7688 43.0325 13.4622 43.0539C16.8857 43.1656 20.3016 43.2388 23.7174 43.3081Z" fill="#778D7E"/>
<path d="M11.5175 23.7606C11.5175 21.3485 12.2326 18.9906 13.5723 16.9847C14.912 14.9789 16.8162 13.4152 19.0443 12.4913C21.2724 11.5673 23.7245 11.3246 26.0905 11.7938C28.4565 12.263 30.6303 13.4231 32.3373 15.1273C34.0442 16.8316 35.2077 19.0035 35.6806 21.3688C36.1535 23.7341 35.9146 26.1865 34.9942 28.416C34.0738 30.6456 32.5131 32.5524 30.5094 33.8952C28.5056 35.2381 26.1488 35.9568 23.7367 35.9606C22.1332 35.9621 20.5452 35.6476 19.0633 35.0353C17.5814 34.4229 16.2346 33.5248 15.0999 32.3919C13.9652 31.2589 13.0647 29.9135 12.4501 28.4326C11.8354 26.9516 11.5185 25.3641 11.5175 23.7606ZM15.8153 23.7183C15.8069 25.2825 16.2627 26.8139 17.1249 28.1189C17.9872 29.424 19.2172 30.4439 20.6593 31.0497C22.1014 31.6554 23.6907 31.8198 25.2263 31.522C26.7618 31.2242 28.1746 30.4778 29.2857 29.3769C30.3968 28.276 31.1565 26.8702 31.4684 25.3375C31.7804 23.8048 31.6307 22.214 31.0383 20.7663C30.4459 19.3187 29.4374 18.0793 28.1404 17.2049C26.8434 16.3306 25.3162 15.8608 23.7521 15.8547C22.7141 15.8481 21.6851 16.0464 20.724 16.4383C19.7628 16.8303 18.8884 17.4082 18.1511 18.1387C17.4137 18.8693 16.8278 19.7382 16.427 20.6956C16.0261 21.6531 15.8183 22.6803 15.8153 23.7183Z" fill="#778D7E"/>
<path d="M39.2445 11.056C39.2491 11.6174 39.0873 12.1675 38.7794 12.637C38.4716 13.1065 38.0315 13.4744 37.5149 13.6941C36.9982 13.9139 36.4282 13.9756 35.8764 13.8716C35.3247 13.7677 34.8161 13.5026 34.4148 13.1099C34.0136 12.7172 33.7376 12.2146 33.6218 11.6652C33.5059 11.1159 33.5553 10.5446 33.7639 10.0233C33.9724 9.50202 34.3306 9.05409 34.7933 8.73619C35.2561 8.41828 35.8026 8.24457 36.364 8.23695C36.7388 8.23083 37.1111 8.29923 37.4593 8.43796C37.8075 8.57669 38.1247 8.78315 38.3926 9.04532C38.6605 9.30748 38.8738 9.62005 39.02 9.96519C39.1663 10.3103 39.2426 10.6812 39.2445 11.056Z" fill="#778D7E"/>
</svg>
