<svg width="48" height="48" viewBox="0 0 48 48" fill="none" xmlns="http://www.w3.org/2000/svg">
<path d="M28.7958 18.7027C28.6988 18.7011 28.6026 18.72 28.5134 18.7583C28.4243 18.7966 28.3444 18.8534 28.2788 18.9248C28.2132 18.9963 28.1635 19.0808 28.133 19.1729C28.1025 19.2649 28.0918 19.3625 28.1018 19.4589C28.1018 20.4179 28.1018 23.0063 28.1018 23.0063C28.1018 23.0063 25.9614 20.2776 25.1114 19.19C24.8853 18.8976 24.6592 18.5662 24.2069 18.7299C23.7547 18.8937 23.6845 19.2407 23.6884 19.6617C23.6884 21.4041 23.6884 23.1505 23.6884 24.893C23.6884 25.4465 23.9653 25.809 24.3785 25.8207C24.7918 25.8324 25.0997 25.4544 25.0997 24.8736C25.0997 23.9497 25.0997 21.5211 25.0997 21.5211C25.0997 21.5211 27.2986 24.3395 28.2187 25.4505C28.3073 25.5574 28.421 25.6406 28.5495 25.693C28.6781 25.7454 28.8176 25.7652 28.9557 25.7507C29.3105 25.7273 29.4819 25.4271 29.4819 25.0529C29.4819 23.1856 29.4819 21.3184 29.4819 19.4511C29.4919 19.3557 29.4815 19.2592 29.4514 19.1681C29.4213 19.077 29.3721 18.9933 29.3073 18.9226C29.2424 18.8518 29.1633 18.7956 29.0751 18.7577C28.9869 18.7198 28.8917 18.7011 28.7958 18.7027Z" fill="#778D7E"/>
<path d="M19.3725 24.4175C18.8032 24.4175 18.2302 24.3941 17.6609 24.4175C17.2711 24.437 17.1268 24.2928 17.1307 23.8874C17.1502 22.4412 17.1307 20.9911 17.1307 19.541C17.1307 18.9991 16.8734 18.6756 16.4562 18.6717C16.039 18.6678 15.7739 18.9952 15.77 19.5331C15.77 20.4297 15.77 21.3224 15.77 22.2151C15.77 23.1077 15.77 24.0667 15.77 24.9906C15.7528 25.1031 15.7623 25.2181 15.7977 25.3262C15.8332 25.4343 15.8936 25.5326 15.9741 25.613C16.0546 25.6935 16.1528 25.7538 16.261 25.7893C16.3691 25.8247 16.484 25.8343 16.5965 25.8171C17.5192 25.8327 18.4446 25.8327 19.3725 25.8171C19.4729 25.8256 19.5741 25.8134 19.6697 25.7815C19.7653 25.7496 19.8534 25.6986 19.9286 25.6315C20.0038 25.5643 20.0644 25.4825 20.1069 25.3911C20.1494 25.2997 20.1728 25.2004 20.1756 25.0997C20.1756 24.6943 19.8637 24.4253 19.3725 24.4175Z" fill="#778D7E"/>
<path d="M21.7663 18.675C21.2868 18.675 21.01 18.8621 21.0061 19.3338C20.9905 21.2751 20.9905 23.2166 21.0061 25.1579C21.0061 25.6295 21.2946 25.8477 21.7624 25.8282C22.2303 25.8088 22.4058 25.6178 22.4058 25.1188C22.4058 24.1794 22.4058 23.2399 22.4058 22.3005C22.4058 21.361 22.4058 20.3513 22.4058 19.3884C22.4019 18.8856 22.2225 18.6945 21.7663 18.675Z" fill="#778D7E"/>
<path d="M34.4411 24.4213C34.0084 24.4213 33.5757 24.4213 33.1468 24.4213C31.9772 24.394 32.1526 24.6669 32.1214 23.3493C32.1214 23.0336 32.254 22.9595 32.5386 22.9595C33.1429 22.9595 33.7432 22.9595 34.3476 22.9595C34.8271 22.9595 35.1273 22.7022 35.1273 22.2851C35.1332 22.1833 35.1167 22.0814 35.0789 21.9867C35.0411 21.8919 34.9829 21.8064 34.9086 21.7366C34.8342 21.6667 34.7455 21.6141 34.6485 21.5822C34.5516 21.5503 34.4489 21.5402 34.3476 21.5523C33.9577 21.5523 33.5445 21.5523 33.1429 21.5523C31.9733 21.5172 32.1487 21.8018 32.1175 20.4803C32.1175 20.1646 32.2462 20.0905 32.5347 20.0905C33.1351 20.0905 33.7393 20.0905 34.3397 20.0905C34.8778 20.0905 35.1858 19.8214 35.178 19.3809C35.1702 18.9404 34.8623 18.687 34.3242 18.6831C33.4158 18.6831 32.5035 18.6831 31.5951 18.6831C31.4759 18.6658 31.3542 18.6764 31.2398 18.714C31.1253 18.7515 31.0212 18.8151 30.9355 18.8997C30.8497 18.9843 30.7848 19.0877 30.7457 19.2016C30.7066 19.3155 30.6944 19.437 30.7101 19.5564C30.7101 20.4491 30.7101 21.3457 30.7101 22.2423C30.7101 23.1389 30.7101 24.0938 30.7101 25.0177C30.6971 25.1248 30.708 25.2334 30.7421 25.3357C30.7761 25.4381 30.8324 25.5317 30.907 25.6096C30.9816 25.6876 31.0726 25.7479 31.1733 25.7865C31.2741 25.825 31.3823 25.8408 31.4898 25.8325C32.4606 25.8325 33.4392 25.8325 34.4061 25.8325C34.5029 25.8397 34.6001 25.8267 34.6917 25.7946C34.7834 25.7626 34.8674 25.712 34.9386 25.646C35.0097 25.5799 35.0665 25.4999 35.1053 25.4109C35.1441 25.3219 35.1641 25.2259 35.1641 25.1288C35.1641 25.0318 35.1441 24.9357 35.1053 24.8467C35.0665 24.7578 35.0097 24.6777 34.9386 24.6117C34.8674 24.5456 34.7834 24.4951 34.6917 24.463C34.6001 24.4309 34.5029 24.4179 34.4061 24.4251L34.4411 24.4213Z" fill="#778D7E"/>
<path d="M45.2641 1.10624C44.1809 0.348504 42.8816 -0.0385271 41.5602 0.00302855C29.9186 0.00302855 18.2783 0.00302855 6.63918 0.00302855C3.08741 0.00302855 1.02104 2.36141 0.560984 4.85234C0.506401 5.1642 0.44404 5.47601 0.385559 5.78787V41.5421C0.459635 41.9319 0.533647 42.3217 0.611622 42.7115C0.877647 43.9233 1.52381 45.0185 2.45582 45.8375C3.38783 46.6565 4.55701 47.1565 5.79308 47.2647C5.93944 47.2917 6.08304 47.3322 6.22198 47.3855H41.9852C42.3556 47.3154 42.73 47.2452 43.1003 47.1672C44.3336 46.9134 45.4499 46.2633 46.2791 45.316C47.1083 44.3686 47.6048 43.1761 47.693 41.9203C47.7437 41.1952 47.771 40.47 47.771 39.7489C47.771 28.6235 47.771 17.4968 47.771 6.36879C47.7788 4.22479 47.0536 2.41993 45.2641 1.10624ZM38.5504 24.6824C38.2565 25.6477 37.8273 26.5664 37.2755 27.4112C35.0142 30.9 31.9108 33.4689 28.4137 35.5973C27.01 36.5238 25.5342 37.336 24.0003 38.0259C23.5325 38.2169 23.2206 38.3611 22.8307 38.0687C22.4408 37.7764 22.4681 37.3516 22.5149 36.9267C22.6007 36.1471 22.7098 35.3674 22.7644 34.5878C22.8073 33.9875 22.5383 33.73 21.934 33.6599C19.0978 33.3727 16.3863 32.3472 14.0701 30.6856C11.7504 28.9977 10.0545 26.8421 9.44626 23.9886C8.78737 20.9013 9.54373 18.1101 11.4931 15.662C13.77 12.8085 16.8188 11.2025 20.3355 10.5047C25.2479 9.53016 29.8796 10.2591 34.0473 13.1594C36.9558 15.1864 38.9286 18.4804 38.9481 21.9615C38.9535 22.8885 38.8194 23.811 38.5504 24.698V24.6824Z" fill="#778D7E"/>
</svg>
