<svg width="720" height="501" viewBox="0 0 720 501" fill="none" xmlns="http://www.w3.org/2000/svg">
<path d="M720 314.6C720 322.611 719.782 329.327 718.788 331.595C719.019 341.285 719.273 346.145 719.479 349.621C719.743 352.85 719.857 356.095 719.818 359.34C719.564 356.557 719.382 351.034 719.007 350.99C719.649 358.751 718.752 354.701 718.631 351.52C718.146 357.411 718.631 372.816 718.994 387.012C719.14 394.126 719.273 400.93 719.37 406.158C719.467 411.386 719.455 414.994 719.055 415.539H719.37C718.158 418.293 716.777 413.875 716.208 422.151L716.971 427.659L716.68 435.98C717.443 441.562 717.734 438.808 717.892 438.808C717.892 439.367 717.892 439.927 717.892 440.501C717.892 441.076 717.892 441.724 717.892 442.342C717.892 443.815 718.025 445.405 718.086 446.996C718.243 450.162 718.425 453.461 718.655 456.878C718.885 460.294 719.212 464.241 719.552 468.114C719.891 471.988 713.263 474.845 714.826 473.49C712.076 474.064 708.671 474.845 704.903 475.714C703.073 476.185 700.977 476.553 698.845 476.936C696.712 477.319 694.544 477.672 692.411 477.996L686.656 478.85C685.141 479.071 683.748 479.219 682.536 479.292C680.113 479.425 678.405 479.292 677.835 478.423C675.557 479.611 673.28 480.834 671.002 482.09C648.174 490.014 655.057 479.749 645.945 482.09L634.483 486.509C634.483 486.509 594.087 488.732 588.15 488.556C582.213 488.379 561.809 486.391 561.809 486.391L548.13 488.791C548.13 488.791 529.459 496.464 493.861 498.865L496.951 497.392C489.899 496.184 482.847 495.065 480.884 497.583C470.198 497.583 459.317 497.583 449.382 498.128C440.716 498.461 432.074 499.42 423.502 501L420.46 497.436C415.941 497.436 409.18 501.943 406.975 497.171L397.282 495.168C391.103 495.036 387.322 493.033 380.319 494.432L378.986 494.712C378.994 494.622 379.019 494.537 379.059 494.461C365.101 494.991 379.204 491.737 363.211 492.606C358.086 494.417 357.54 488.556 349.75 488.88L341.935 492.547C327.807 494.019 325.396 489.896 304.943 488.865C295.129 489.675 290.404 492.311 296.886 495.477C287.944 491.589 292.815 493.047 280.953 490.765C279.124 491.943 280.384 492.237 283.013 493.636C277.742 493.99 276.119 493.636 274.81 493.092C272.827 492.131 270.705 491.666 268.57 491.722C266.256 489.248 263.59 485.448 261.01 485.213L264.087 484.594C255.029 482.911 245.849 482.417 236.704 483.121L237.08 484.241L226.672 483.328L226.018 484.668L211.151 483.887L213.199 483.445C209.709 483.195 198.247 482.503 191.704 483.033L191.935 483.755C183.11 484.47 174.254 484.411 165.436 483.578C156.603 483.062 147.383 482.267 136.563 482.105L139.398 483.49C132.032 484.844 137.387 481.31 128.59 482.017L128.154 483.71C120.412 481.604 118.146 484.358 112.815 485.316L115.299 483.107L105.254 483.755C99.7294 484.182 97.9846 485.08 97.924 485.846C97.8634 486.612 99.2811 487.407 100.093 487.967L92.5565 486.494L91.0662 488.644C85.5654 486.479 85.5654 489.321 75.9208 488.467C75.1333 489.351 77.5687 489.645 74.2851 490.235C68.9943 489.636 63.6955 488.978 58.3885 488.261L67.9846 488.983L66.773 485.787C63.003 485.018 59.1587 484.948 55.3715 485.581C52.323 486.309 49.2215 486.66 46.1147 486.626L50.9612 487.274C47.1695 487.195 43.3801 487.555 39.6446 488.349L38.7601 488.585C38.5602 488.639 38.3579 488.678 38.1543 488.703L37.4394 488.835L34.5072 489.395C32.4838 489.778 30.2423 490.176 27.3344 490.573C31.1147 489.616 36.3489 488.276 28.546 488.246C22.8514 488.379 25.0807 489.793 19.277 490.603C19.2043 489.572 16.7811 488.924 13.3279 488.6C8.88788 488.272 4.43444 488.322 0 488.747C0.5937 485.345 1.12675 481.928 1.59929 478.6C1.11254 479.359 0.739368 480.217 0.496736 481.133C1.94479 476.236 3.0592 471.202 3.82872 466.082L0.932906 472.385L3.45312 463.741L5.37965 457.29C5.8643 453.505 6.91835 448.631 7.65745 444.978C7.98459 443.329 8.26329 441.93 8.44504 440.987C8.5662 440.28 8.56617 439.942 8.33596 440.104L7.86348 441.576C7.75838 441.898 7.66933 442.228 7.59688 442.563L7.33036 443.682L7.66958 441.827L7.97248 440.59C8.17846 439.765 8.39661 438.94 8.55412 438.101L9.62036 433.138C10.2989 429.824 10.8319 426.51 11.462 423.212C12.5161 416.584 13.4248 409.957 14.0428 403.33L13.9216 402.785C14.6607 398.853 15.4604 381.136 15.3514 382.447C15.5679 376.773 15.5031 371.088 15.1575 365.423C14.6728 359.532 13.8126 355.114 14.0792 357.337C12.9393 351.294 11.4658 345.35 9.6688 339.547C8.09368 334.069 6.61549 328.855 5.35539 323.48C4.05307 317.868 3.10921 312.141 2.53227 306.352C2.21724 303.26 1.99918 300.005 1.87801 296.529C1.75685 293.054 1.7932 289.372 1.6478 285.396C1.36098 283.716 1.17468 282.013 1.09042 280.3C0.951683 278.105 0.919296 275.902 0.993473 273.702C1.07829 271.302 1.15102 268.71 1.40546 265.985C1.6599 263.261 1.91436 260.404 2.32631 257.473C3.84085 245.78 6.65181 232.938 8.5056 222.762C12.4162 205.533 14.7087 187.821 15.3392 169.965C15.7043 152.112 15.0078 134.251 13.2553 116.521C12.0436 106.624 10.1413 94.7687 7.59688 82.4126L7.10014 80.0857L6.84567 78.9223C6.84567 78.7162 6.77301 78.5836 6.72454 78.3038L6.57915 77.3907L5.45234 70.0272C4.73748 65.2114 4.01047 60.3809 3.2956 55.5799L3.02908 53.798L2.89574 52.9143C2.89574 52.6051 2.89574 52.2958 2.89574 51.9718C2.89574 50.7347 2.83515 49.4829 2.81092 48.2311C2.81092 45.757 2.70193 43.2828 2.64135 40.8676C2.52019 35.9635 2.38685 31.1182 2.2051 26.332C5.28265 24.7562 8.26332 23.1804 11.1228 21.5162C12.5525 20.6915 13.958 19.852 15.3392 18.9684C16.1365 18.4761 16.9969 18.1524 17.8836 18.0112L20.6583 17.2012C24.5355 17.4859 28.2512 17.8394 31.8053 18.2616C33.332 17.6725 34.9435 17.1128 36.6519 16.5679L37.9241 16.1703C38.2998 16.0806 38.6686 15.9526 39.0266 15.7874C39.5113 15.5371 40.0202 15.3161 40.517 15.1099C42.5956 14.205 44.7106 13.4284 46.8538 12.7831C49.0589 12.1498 51.349 11.546 53.6874 11.06C56.0258 10.574 58.4491 10.1764 60.9572 9.76401C70.7835 8.21766 81.3247 7.36349 91.4297 3.13683C94.2879 4.03467 97.1951 4.68431 100.129 5.08081C99.3932 5.30148 98.7324 5.79634 98.2392 6.49612C97.746 7.19591 97.4452 8.06559 97.3788 8.98347C100.263 7.82004 104.649 7.80533 108.162 7.30461C111.676 6.80389 114.414 6.06752 113.99 3.28411L112.524 2.75395C111.676 -2.7687 130.044 4.96302 136.478 0L132.952 6.06754L143.857 4.83048L140.925 3.74064C146.862 5.30171 152.387 6.28844 157.609 7.06897C162.831 7.84951 167.738 8.26187 172.427 8.40914C181.805 8.71841 190.335 7.92315 198.768 7.21625C215.646 5.97918 232.149 4.55065 254.443 11.2662C248.53 4.74211 263.227 14.8449 263.809 7.96735C269.431 3.81432 274.641 4.52121 279.56 6.49464C284.479 8.46807 289.253 11.7964 293.833 13.0629C293.833 13.3869 293.942 13.7845 294.463 14.3147L310.578 14.0349C300.957 5.40483 322.185 21.2806 313.352 13.9465C324.528 12.7725 335.746 12.281 346.963 12.4738C358.776 12.4738 371.086 12.842 383.615 13.3574C396.143 13.8729 408.865 14.138 421.502 14.3589L440.355 14.5209L449.661 14.4472H458.845L456.712 16.2734C459.802 16.2734 463.074 16.5385 466.406 16.8183L476.365 17.8492C482.908 18.3941 489.087 18.8506 493.764 17.8492C498.441 16.8478 503.566 18.6297 507.965 20.4706C512.363 22.3115 516.058 24.388 517.876 24.6678C522.132 26.1265 526.603 26.4083 530.961 25.4925C533.385 24.9476 534.596 24.1671 534.002 23.8136C539.152 24.7414 544.204 26.4351 549.754 27.79C556.273 29.4686 562.961 29.9648 569.6 29.2627C572.205 27.0978 582.589 28.2907 592.379 28.8798C602.169 29.4688 611.365 29.7781 611.595 26.9653L611.753 27.407C621.446 24.4616 630.981 23.6222 640.638 22.768L647.908 22.0317C650.331 21.7224 652.827 21.3542 655.311 20.8977C657.857 20.4063 660.38 19.7574 662.872 18.9537C665.609 18.1764 668.229 16.8845 670.638 15.1247C670.312 14.7881 669.933 14.5374 669.523 14.3883C676.648 15.6696 683.76 15.051 690.885 16.3617C694.613 16.9899 698.227 18.3843 701.571 20.4854C702.456 21.0744 703.352 21.7224 704.237 22.4293C705.121 23.1362 706.018 23.902 706.914 24.8446C708.865 26.8641 710.654 29.1027 712.258 31.5307C711.652 36.3906 711.046 40.9265 710.452 45.2562H712.258L705.897 74.7104C698.469 109.098 703.134 144.517 713.3 177.8C713.308 177.883 713.308 177.967 713.3 178.05C714.875 192.262 716.498 206.827 716.462 212.364C717.31 217.931 717.068 224.146 716.753 230.729C716.293 237.527 716.152 244.352 716.329 251.17C716.426 273.261 718.001 262.245 718.752 273.349C719.164 287.237 717.431 270.551 717.225 276.118C717.678 281.655 718.082 287.197 718.437 292.745C718.801 283.084 719.37 288.326 719.746 290.094C719.661 297.325 719.976 306.588 720 314.6Z" fill="#749279"/>
</svg>

