<svg width="127" height="184" viewBox="0 0 127 184" fill="none" xmlns="http://www.w3.org/2000/svg">
<path d="M53.666 116.786C54.4264 116.507 55.1547 116.194 55.9081 115.934C57.9678 115.192 59.9782 114.32 61.9271 113.322L66.8999 110.865C68.1528 110.254 69.3556 109.537 70.6211 108.953C73.5473 107.597 76.6708 106.718 79.8734 106.35C84.4311 105.894 89.0205 105.858 93.5839 106.243L100.843 106.631C102.686 106.734 104.535 106.656 106.364 106.399C106.645 106.353 106.933 106.366 107.209 106.436C107.167 106.554 106.936 106.647 106.778 106.657C105.22 106.974 103.715 107.513 102.309 108.258C99.7001 109.398 97.091 110.539 94.3662 111.571C87.1401 114.348 79.6784 116.464 72.0724 117.894C70.0118 118.32 67.9164 118.553 65.8131 118.591C65.5929 118.587 65.3737 118.56 65.159 118.511C71.603 117.739 77.9693 116.414 84.1875 114.55C90.4231 112.771 96.5167 110.526 102.417 107.833C92.9166 109.775 83.556 111.325 73.9933 112.517L74.0352 112.4C75.0564 112.191 76.0721 111.937 77.0793 111.768C82.8394 110.805 88.6119 109.868 94.3789 108.886C96.9402 108.434 99.4709 107.883 102.027 107.385C102.319 107.332 102.603 107.241 102.872 107.114L102.618 107.023C99.0599 106.876 95.5351 106.697 91.9769 106.551C87.8131 106.28 83.6331 106.388 79.4882 106.874C76.1172 107.303 72.8471 108.321 69.8269 109.882C67.5051 111.081 65.1972 112.241 62.8825 113.42C62.1792 113.787 61.4315 114.093 60.7157 114.432C60.4516 114.534 60.2254 114.715 60.0682 114.951L62.5655 114.123C66.4245 112.812 70.2724 111.408 74.1816 110.203C79.3693 108.605 84.743 107.694 90.1658 107.491C90.6836 107.464 91.2028 107.501 91.7112 107.602L90.9356 107.678C83.6225 108.115 76.411 109.616 69.5284 112.135L56.3958 116.725C55.8977 116.889 55.3886 117.016 54.8724 117.107C54.6692 117.222 54.4291 117.253 54.2035 117.194C53.9779 117.134 53.785 116.987 53.666 116.786V116.786Z" fill="#2F4433"/>
<path d="M124.193 53.9655L123.035 54.7424C120.878 56.3652 118.902 58.2172 117.143 60.266C114.965 62.6631 112.852 65.1272 110.591 67.4504C108.33 69.7735 106.294 71.7139 103.955 73.7004C101.616 75.687 99.799 77.1987 97.682 78.9338C94.7377 81.4169 91.6336 83.7033 88.3896 85.7784C87.8394 86.1288 87.2549 86.4224 86.6455 86.6546C87.7102 85.9546 88.8084 85.2225 89.7936 84.5602C91.5198 83.3028 93.2514 82.0914 94.9205 80.7474C96.5895 79.4034 98.4848 77.6111 100.267 76.1972C103.439 73.5329 106.476 70.7102 109.365 67.7399C111.263 65.8163 112.987 63.7642 114.904 61.8476C116.501 60.2132 118.137 58.5927 119.792 56.9792C120.309 56.4581 120.909 56.0111 121.467 55.3727C121.175 55.511 120.859 55.5964 120.587 55.7417C119.416 56.492 118.206 57.2284 117.067 58.0122C115.929 58.796 115.022 59.4862 114.06 60.2672C112.592 61.4184 111.046 62.5416 109.713 63.8073C106.997 66.2325 104.358 68.7513 101.623 71.1696C100.231 72.4143 98.7116 73.525 97.2366 74.6957C95.7615 75.8665 94.7065 76.7243 93.4185 77.7414C92.1403 78.7212 90.8089 79.6294 89.4304 80.4617C89.7178 80.2117 89.9858 79.9546 90.2859 79.7311L93.4748 76.9677L96.5868 74.4195C97.2413 73.8816 97.9403 73.4038 98.5544 72.9176C100.366 71.3599 102.138 69.7883 103.911 68.2166C105.978 66.3753 107.993 64.4936 110.111 62.6928C112.551 60.5429 115.15 58.5822 117.887 56.8277C119.712 55.6968 121.634 54.7305 123.63 53.9405C123.63 53.9405 124.043 53.9558 124.193 53.9655Z" fill="#2F4433"/>
<path d="M41.722 58.4568C40.3029 64.6938 39.5051 71.0558 39.3401 77.4494C39.2435 84.4149 40.4357 91.3369 42.8563 97.8657C43.1476 98.676 43.3968 99.5009 43.6027 100.337C43.1959 99.4422 42.7961 98.5276 42.3488 97.6843C39.287 89.6352 38.157 80.9769 39.0499 72.4069C39.366 68.4408 40.127 64.5235 40.7764 60.6104C41.2201 58.0128 41.4936 55.3986 41.8451 52.8123C41.8403 52.741 41.8502 52.6694 41.8742 52.6022C41.8983 52.5349 41.9359 52.4732 41.9848 52.4212C42.049 52.7338 42.0902 53.0507 42.1084 53.3693C42.0762 56.0477 42.1097 58.7275 41.9464 61.4032C41.6944 65.4362 41.2653 69.4722 41.0064 73.5248C40.7158 79.0753 41.1011 84.64 42.1535 90.0961C42.1548 90.2246 42.1102 90.3494 42.0278 90.448L41.6128 89.021C41.4987 88.5392 41.3652 88.0506 41.2776 87.5562C40.2604 82.2636 39.9701 76.856 40.4147 71.4834L41.607 59.5181L41.722 58.4568Z" fill="#2F4433"/>
<path d="M14.7999 87.2249C14.842 87.3264 14.8705 87.4329 14.8847 87.5419C14.9109 88.6747 15.1725 89.7894 15.6529 90.8149C16.802 93.761 17.9372 96.7462 19.2244 99.6755C20.0241 101.505 21.0289 103.253 21.9471 105.058C22.8654 106.863 23.5134 107.822 24.2742 109.329C25.035 110.835 25.6328 111.688 26.1971 112.882C27.4658 115.331 28.4716 117.907 29.1975 120.569L30.4183 125.04C30.4992 125.337 30.5302 125.646 30.5098 125.954L30.2201 125.101C29.5281 122.847 28.8696 120.562 28.1316 118.314C27.5069 116.392 26.695 114.536 25.7076 112.773C24.5663 110.668 23.4517 108.55 22.2574 106.47C19.723 101.937 17.5709 97.2005 15.8236 92.3091C15.7642 92.144 15.6663 91.9956 15.5379 91.8763C16.1675 95.9728 17.1415 100.009 18.4493 103.941C19.7807 107.856 21.3171 111.69 22.7015 115.58C22.3183 114.804 21.9086 114.04 21.5784 113.238C20.4153 110.331 19.2313 107.483 18.1031 104.478C16.4384 99.6271 15.2773 94.6167 14.6381 89.5264C14.5478 88.8547 14.5957 88.1662 14.5709 87.4959C14.5883 87.3856 14.6262 87.2795 14.6827 87.1831L14.7999 87.2249Z" fill="#2F4433"/>
<path d="M50.7953 144.358L52.0241 144.554C55.1811 145.189 58.3902 145.531 61.6106 145.576C65.9151 145.568 70.1861 144.811 74.2328 143.338C77.8402 142.064 81.5499 141.103 85.321 140.465L85.7828 140.343L85.8317 140.206C85.5827 140.192 85.3332 140.191 85.0841 140.204C80.9231 140.327 76.8134 140.799 72.6968 141.29C69.586 141.678 66.4891 142.027 63.4899 142.411C62.6487 142.509 61.7991 142.509 60.9581 142.41L61.8789 142.298C67.4295 141.613 72.9871 140.909 78.5434 140.27C81.848 139.914 85.1733 139.791 88.4948 139.901L89.8504 139.988L90.1532 139.942L90.0833 140.137L87.6297 140.165C87.4222 140.296 87.1997 140.402 86.967 140.479C82.3337 141.375 77.7745 142.621 73.3285 144.206C67.7746 146.036 61.8622 146.496 56.0951 145.546C54.3363 145.292 52.6 144.914 50.8691 144.582L50.7953 144.358Z" fill="#2F4433"/>
<path d="M96.0555 36.5269C96.6808 35.8242 97.2936 35.095 97.9315 34.4189C99.3893 32.9081 100.985 31.5368 102.697 30.3228C103.73 29.5893 104.704 28.8349 105.705 28.0679C107.366 27.052 109.078 26.1423 110.785 25.1865C111.456 24.7869 112.133 24.4334 112.804 24.0338L116.4 21.8568C117.696 21.0631 118.992 20.2695 120.276 19.4493C122.322 18.1728 124.173 16.6057 125.769 14.7971C125.887 14.6776 126.014 14.5683 126.15 14.4703L126.287 14.5191C125.775 15.1854 125.225 15.8207 124.638 16.4216C123.441 17.5167 122.179 18.5384 120.859 19.4812C118.677 20.9064 116.381 22.4014 114.082 23.7847C111.782 25.168 109.906 26.1071 107.82 27.3242C105.708 28.5136 103.697 29.8749 101.808 31.3942C100.926 32.1375 100.007 32.8011 99.1371 33.5708C98.2676 34.3406 97.3549 35.2933 96.47 36.1678L96.0821 36.5143L96.0555 36.5269Z" fill="#2F4433"/>
<path d="M93.5891 1.95568C92.6758 3.83424 91.8015 5.72675 90.8911 7.47404C88.2086 12.5279 86.5332 18.055 85.9581 23.7473C85.6774 26.6898 85.4819 29.6405 85.2208 32.5899C85.0606 35.2104 84.7321 37.818 84.2372 40.3965C84.1503 40.826 84.0021 41.2409 83.7971 41.6283C83.8154 41.5542 83.8411 41.4821 83.874 41.4132C84.5643 36.7627 85.0102 32.0794 85.2098 27.3826C85.3954 23.8028 85.9276 20.2492 86.7989 16.7717C87.6243 13.7207 88.7886 10.7717 90.27 7.97977C91.2265 6.22688 92.1315 4.43352 93.0489 2.66668L93.5179 1.90821L93.5891 1.95568Z" fill="#2F4433"/>
<path d="M110.119 60.8215C108.486 62.3107 106.84 63.839 105.214 65.3087C103.795 66.5664 102.232 67.6512 100.558 68.5403C99.0795 69.2907 97.6326 70.0747 96.1926 70.8391C95.7615 71.0599 95.3373 71.2611 94.9382 71.5154C92.8947 72.827 91.0906 74.4794 89.6042 76.4007C88.0423 78.246 86.4999 80.0982 84.8348 81.8626C83.2077 83.5964 81.4208 85.1727 79.4981 86.5705C79.0032 86.909 78.4836 87.2099 77.9437 87.4704L73.6949 89.811L73.5682 89.6113L73.9742 89.3375L76.144 88.1944L78.2829 86.9522C79.9156 85.8876 81.4424 84.6684 82.8422 83.3114C85.4516 80.8003 87.8837 78.1108 90.121 75.2624C91.3087 73.812 92.7096 72.5505 94.2756 71.5212C95.2064 70.9497 96.2068 70.4914 97.1751 69.9995C99.6817 68.9316 102.045 67.5539 104.21 65.8983C106.041 64.3476 107.833 62.7829 109.645 61.2252C109.781 61.1178 109.925 61.022 110.077 60.9388L110.119 60.8215Z" fill="#2F4433"/>
<path d="M54.4511 37.1855C55.1005 40.7909 55.6649 44.388 56.3938 47.9557C57.3425 52.572 58.8646 57.0625 60.1761 61.5879C61.1925 64.9055 61.9341 68.1911 62.7804 71.492C63.1089 72.7828 63.2412 74.116 63.1729 75.4467C63.2288 75.2902 63.1216 75.0976 63.1119 74.9398C62.8041 72.4324 62.2652 69.9592 61.5021 67.5517C60.0973 62.7945 58.6465 58.0429 57.2417 53.2857C55.9716 48.9924 55.0972 44.5913 54.6294 40.1376C54.5393 39.1573 54.4952 38.1714 54.412 37.1716L54.4511 37.1855Z" fill="#2F4433"/>
<path d="M54.7998 27.2119C54.4135 29.5874 54.0077 31.956 53.6604 34.3454C53.3093 36.7248 53.1865 39.1321 53.2937 41.5345C53.4179 43.9601 53.5686 46.3731 53.8504 48.7889C54.1322 51.2047 54.5815 53.4598 55.0349 55.8266C55.5316 58.203 56.1636 60.549 56.928 62.8529L56.7149 62.4019C56.6351 62.2444 56.5684 62.0804 56.5156 61.9118C54.9203 57.5216 53.8766 52.9494 53.4084 48.3003C52.7903 43.7385 52.7259 39.118 53.2166 34.5397C53.4835 32.1705 53.9382 29.8263 54.5765 27.529L54.7162 27.1379L54.7998 27.2119Z" fill="#2F4433"/>
<path d="M43.9228 66.4087C46.7049 76.5922 47.491 87.2203 46.2376 97.7066L46.2043 97.4301L46.185 97.1145C46.1978 94.1205 46.1325 91.0986 46.2305 88.1129C46.3213 81.7572 45.7007 75.412 44.3803 69.1958C44.2036 68.2729 44.0799 67.3247 43.9228 66.4087Z" fill="#2F4433"/>
<path d="M36.3643 78.2603C36.6615 80.5713 36.9616 82.751 37.3272 84.9322C37.9753 88.1209 38.8991 91.2469 40.0881 94.2749C41.2887 97.5701 42.6148 100.822 43.8614 104.112C44.4576 105.647 44.9617 107.195 45.5243 108.763C45.7625 109.364 45.8254 110.021 45.7059 110.657C44.9043 107.76 43.8762 104.93 42.6308 102.195C40.4934 97.1945 38.7118 92.0489 37.2996 86.7964C36.6472 84.0956 36.3136 81.3272 36.3056 78.548C36.3056 78.548 36.3684 78.372 36.3964 78.2938L36.3643 78.2603Z" fill="#2F4433"/>
<path d="M80.6246 20.1883C80.4989 20.5403 80.3732 20.8922 80.2544 21.2246C78.8131 27.386 78.6047 33.7711 79.6412 40.0113C80.068 42.6993 80.4947 45.3873 80.7834 48.0922C81.072 50.797 81.242 53.5256 81.4386 56.2417C81.469 56.6551 81.4108 57.0703 81.2677 57.4594L81.0549 53.9879C80.7963 49.9048 80.0899 45.9042 79.5091 41.8602C78.9952 38.6096 78.6965 35.3284 78.6148 32.0379C78.6032 28.4791 79.0487 24.9331 79.9403 21.4872C80.101 21.0375 80.2617 20.5878 80.4153 20.1576L80.6246 20.1883Z" fill="#2F4433"/>
<path d="M52.7025 31.0487C49.7252 44.5591 50.7865 57.5499 57.6857 69.9145C57.2732 69.282 56.8772 68.7878 56.5874 68.2433C54.5148 64.5058 52.9836 60.4919 52.0397 56.322C50.8874 50.8818 50.5079 45.3055 50.9122 39.7577C51.1953 36.8886 51.7514 34.0528 52.5727 31.289C52.6066 31.2042 52.6501 31.1235 52.7025 31.0487V31.0487Z" fill="#2F4433"/>
<path d="M119.58 18.0098L115.254 20.8741C114.941 21.0711 114.622 21.2877 114.29 21.4777L107.652 25.3902C105.522 26.4977 103.463 27.7353 101.484 29.0958C98.0165 31.536 94.9026 34.4452 92.2315 37.7404C90.8487 39.6167 89.7169 41.6658 88.8649 43.8357C88.7786 44.121 88.6319 44.3844 88.4349 44.6081C88.4349 44.6081 88.4908 44.4517 88.5187 44.3734C89.8745 40.4837 92.1263 36.9675 95.0916 34.1099C98.0028 31.2644 101.231 28.763 104.712 26.655C106.134 25.818 107.496 25.0258 109.028 24.2502C109.931 23.7569 110.814 23.2567 111.77 22.7382L119.434 18.0462L119.647 17.9456L119.58 18.0098Z" fill="#2F4433"/>
<path d="M40.4865 142.77C41.2859 142.504 42.0603 142.185 42.8722 141.946C47.0823 140.585 51.4572 139.804 55.8767 139.625C57.6412 139.616 59.4224 139.745 61.1995 139.762L73.1928 139.902C73.3984 139.893 73.6036 139.928 73.7939 140.007L73.1299 140.078C69.3933 140.386 65.639 140.408 61.8995 140.145C54.9541 139.618 47.9725 140.49 41.3667 142.709L40.5352 142.941L40.4865 142.77Z" fill="#2F4433"/>
<path d="M90.3258 5.72873C89.9502 6.41033 89.5746 7.09195 89.1865 7.74702C87.1571 10.9936 85.4436 14.4276 84.0698 18.0016C82.1284 23.2985 81.0652 28.8769 80.9221 34.5158L80.8925 34.9683C80.8925 34.9683 80.8925 34.9683 80.8227 35.1638C80.7218 30.1865 81.4168 25.2243 82.8813 20.4653C84.4485 15.142 86.9713 10.1483 90.3258 5.72873V5.72873Z" fill="#2F4433"/>
<path d="M31.7523 134.247L31.885 133.876L32.3948 135.16L32.3599 135.258C32.1682 135.087 31.9922 134.898 31.8343 134.696C30.8921 133.389 29.8969 132.107 29.0287 130.717C28.1604 129.326 26.9926 127.233 26.0144 125.473C25.0361 123.712 24.3938 122.49 23.633 120.984C22.0584 117.956 20.6741 114.833 19.4884 111.632C19.0121 110.315 18.5078 109.077 18.072 107.708C18.0093 107.538 17.969 107.361 17.9523 107.181C21.5617 116.676 26.1887 125.751 31.7523 134.247V134.247Z" fill="#2F4433"/>
<path d="M89.0731 50.8333C89.8034 49.5287 90.4946 48.2102 91.2834 46.9266C93.3576 43.5975 95.8153 40.5238 98.6061 37.7688C99.9543 36.3984 101.315 35.0545 102.759 33.7846C104.821 31.9257 107.095 30.318 109.534 28.9951C109.801 28.8558 110.056 28.6965 110.299 28.5187C112.342 27.1759 114.411 25.8206 116.442 24.4514C117.161 23.9085 117.908 23.4025 118.679 22.9354C117.445 23.8617 116.25 24.802 114.992 25.6752C113.38 26.7971 111.736 27.8856 110.092 28.974C109.314 29.4896 108.485 29.899 107.734 30.3363C101.283 34.8582 95.7332 40.5481 91.3712 47.1123C90.6228 48.3442 89.9399 49.5775 89.2516 50.7647L89.0731 50.8333Z" fill="#2F4433"/>
<path d="M46.5339 69.392C47.2226 70.5125 47.7294 71.7354 48.0355 73.0152C49.4296 78.2145 49.9351 83.6134 49.5303 88.9831C49.4331 90.7343 49.2313 92.4702 49.0755 94.2005L48.9388 94.1516C48.9995 92.8725 49.0336 91.6058 49.1138 90.3336C49.2514 87.0819 49.202 83.8252 48.9659 80.5795C48.6657 76.9427 47.9291 73.3557 46.7721 69.896L46.5339 69.392Z" fill="#2F4433"/>
<path d="M103.922 37.6174L101.193 41.5593C99.5803 43.7172 97.8379 45.7749 95.9754 47.7209C93.7849 50.2093 91.4673 52.5826 89.0319 54.8313C88.0145 55.7687 86.8171 56.5316 85.7035 57.3684L85.5864 57.3266C85.9604 57.0192 86.3274 56.7314 86.7335 56.4576C88.1859 55.3213 89.5505 54.0767 90.8156 52.7346C93.9391 49.6613 96.8242 46.3925 99.6451 43.0568C101.066 41.3596 102.292 39.5926 103.693 37.8884C103.713 37.8221 103.737 37.7569 103.763 37.6929L103.922 37.6174Z" fill="#2F4433"/>
<path d="M95.1378 78.9067C94.9957 79.0749 94.8433 79.2339 94.6814 79.3831C92.9468 80.7257 91.2247 82.0948 89.4776 83.4109C87.7304 84.727 86.0963 85.9732 84.3255 87.1706C82.4868 88.3656 80.5435 89.3908 78.5197 90.2337C77.8517 90.5482 77.1569 90.8018 76.4436 90.9913L78.6733 89.8036L82.3695 87.8388C83.0867 87.4336 83.8234 87.0353 84.496 86.5701C86.7288 84.9424 88.9559 83.2687 91.1886 81.641L95.0416 78.8062L95.1378 78.9067Z" fill="#2F4433"/>
<path d="M65.8804 67.9914C65.4168 66.3926 64.829 64.7715 64.463 63.2076C63.2379 58.9335 62.0784 54.6608 60.8002 50.4119C60.2377 48.5352 59.4632 46.7592 58.7681 44.9455C58.6762 44.7318 58.6385 44.4987 58.6584 44.2668C59.0275 45.0822 59.4232 45.8851 59.7854 46.72C61.242 50.4316 62.4496 54.2366 63.4002 58.1096L65.8334 67.1368C65.9048 67.4041 65.9625 67.6749 66.006 67.9481L65.8804 67.9914Z" fill="#2F4433"/>
<path d="M78.4331 137.805C69.731 136.753 60.9208 136.977 52.2813 138.473C56.5593 137.487 60.9278 136.949 65.3161 136.868C69.7093 136.734 74.1042 137.049 78.4331 137.805Z" fill="#2F4433"/>
<path d="M93.6491 84.306C98.6115 81.5497 103.144 78.0806 107.103 74.0093C103.501 78.4648 98.8882 81.9951 93.6491 84.306V84.306Z" fill="#2F4433"/>
<path d="M111.584 30.0361C106.828 32.8802 102.567 36.4816 98.9685 40.6984C102.323 36.2429 106.634 32.5988 111.584 30.0361V30.0361Z" fill="#2F4433"/>
<path d="M72.1447 115.781L89.5608 111.773C83.8613 113.535 78.0401 114.875 72.1447 115.781Z" fill="#2F4433"/>
<path d="M82.9716 36.174C82.6373 30.8637 83.2015 25.5341 84.6404 20.4103C84.5565 20.6449 84.4727 20.8796 84.5256 21.163C84.198 23.2508 83.7629 25.4546 83.4339 27.608C83.0693 30.2347 82.9172 32.8865 82.979 35.5373L82.9716 36.174Z" fill="#2F4433"/>
<path d="M31.3168 122.031C30.1494 117.685 28.4777 113.492 26.3357 109.536C28.7725 113.347 30.4628 117.587 31.3168 122.031V122.031Z" fill="#2F4433"/>
<path d="M15.149 98.881L17.094 108.042C16.0303 105.092 15.3759 102.01 15.149 98.881V98.881Z" fill="#2F4433"/>
<path d="M82.0116 16.7371C82.9847 15.1224 83.9384 13.5008 84.9115 11.8862L85.0287 11.928C84.0751 13.5497 83.0949 15.1839 82.1413 16.8055L82.0116 16.7371Z" fill="#2F4433"/>
<path d="M14.601 86.1176L14.7959 86.8045C15.3263 88.6477 15.8303 90.5034 16.4332 92.3284C16.9778 93.7553 17.7532 95.0826 18.7284 96.2572C20.8967 99.102 23.2149 101.829 25.6732 104.427C28.5354 107.685 30.6479 111.533 31.8616 115.699C32.9004 119.078 33.3882 122.602 33.3065 126.137C33.2913 128.337 33.1395 130.487 33.0072 132.645C32.8876 133.94 32.9787 135.246 33.277 136.512C33.6599 137.905 33.8975 139.335 34.23 140.931C34.3627 140.56 34.4605 140.286 34.5513 140.032C36.4617 134.804 38.7808 129.734 41.4868 124.871C42.4014 123.235 43.4457 121.668 44.3798 120.039C44.7092 119.513 44.9582 118.941 45.1186 118.341C45.6541 116.33 45.8634 114.246 45.7386 112.168C45.6056 110.994 45.1714 109.874 44.4781 108.918C43.2684 106.942 42.0713 104.993 40.7401 103.173C39.7346 101.676 38.9943 100.017 38.5515 98.2679C38.3163 97.324 38.035 96.3857 37.8263 95.4292C37.3332 93.6198 36.6985 91.8523 35.9281 90.1429C34.0467 85.7613 33.3768 80.9529 33.9885 76.2209C34.2552 74.2406 34.6265 72.2757 35.1008 70.3345C36.2869 65.751 37.8233 61.2654 39.6961 56.9171C40.1921 55.5288 40.8442 54.1964 41.3987 52.8291C41.5315 52.4576 41.6642 52.0861 41.7969 51.7146C42.2264 51.868 42.1816 52.1166 42.2024 52.3665C42.3997 53.8481 42.5579 55.3157 42.8276 56.7791C43.3802 59.734 44.2543 62.6192 45.4341 65.3831C47.1049 69.4884 48.5462 73.6837 49.7513 77.9497C51.0451 82.871 51.4183 87.9903 50.8518 93.0492C50.5084 95.6325 49.9369 98.1804 49.1443 100.663C48.4148 103.137 47.6267 105.589 46.9167 108.069C46.5603 109.502 46.3894 110.975 46.408 112.452C46.3905 113.857 46.2223 115.252 46.1197 116.648C46.0429 116.863 45.959 117.098 46.0215 117.539C46.1784 117.38 46.3265 117.212 46.4654 117.036C50.3366 111.253 54.6402 105.802 58.7764 100.202C59.5065 99.2058 60.2825 98.2042 60.9805 97.1748C61.4502 96.4411 61.8763 95.6805 62.2568 94.8968C63.1859 92.8317 63.5718 90.5635 63.3778 88.3079C63.2208 85.1684 62.3014 82.1154 60.699 79.4134C59.7305 77.8107 58.6488 76.2777 57.6007 74.7127C55.9045 72.1885 54.1359 69.6825 52.5527 67.0884C49.5115 62.2408 48.0685 56.5581 48.4273 50.8422C48.7833 43.8248 50.2651 36.9095 52.8159 30.3616C53.5144 28.4063 54.4863 26.5487 55.3215 24.6422C55.4814 24.3348 55.6609 24.038 55.859 23.7539L56.0153 23.8097C55.9384 24.0248 56.0443 24.2831 56.033 24.4995C55.8396 26.7184 55.8833 28.9514 56.1632 31.1606C56.4849 33.4293 57.1888 35.6266 58.2449 37.6589C59.5478 40.1749 60.8785 42.6126 62.1744 45.1481C64.3567 49.5099 65.4723 54.3293 65.4292 59.2093C65.4301 60.0695 65.438 60.9101 65.4194 61.7633C65.3988 63.3175 65.5855 64.8672 65.9747 66.3714C66.9279 70.0284 66.8188 73.8828 65.6603 77.4818C65.1923 78.7918 64.8929 80.1842 64.5365 81.49C63.9668 83.3872 63.7719 85.3771 63.9627 87.3483C64.1871 89.3202 64.0413 91.317 63.5326 93.2359C63.516 93.3445 63.5136 93.4549 63.5254 93.5641C63.61 93.4867 63.6906 93.4051 63.7669 93.3196C67.0185 89.0051 70.01 84.5004 72.7255 79.8295C75.0503 75.6837 77.1364 71.4084 78.9734 67.0245C79.7007 65.0728 80.2837 63.0702 80.7176 61.0331C81.3495 57.8173 81.0746 54.4896 79.9237 51.423C79.1774 48.9516 78.131 46.7036 77.4098 44.2852C75.295 37.5271 75.2292 30.2914 77.2206 23.4921C78.5631 19.1494 80.659 15.0768 83.4123 11.4608C85.3393 8.97108 87.4376 6.61903 89.6919 4.42182C90.8461 3.22464 92.1034 2.10842 93.3288 0.958702C93.3917 0.782726 93.6749 0.729576 93.968 0.525588C93.9596 0.723978 93.9333 0.921218 93.8895 1.11492C93.5333 2.11211 93.191 3.07021 92.6911 4.03813C91.2384 7.14661 90.2176 10.4392 89.6572 13.8241C89.3174 15.9286 89.2487 18.0678 89.4528 20.1892C89.733 23.7709 89.7356 27.3692 89.4607 30.9517C89.3398 32.9047 88.9895 34.8369 88.417 36.7083C88.3238 36.9686 88.2995 37.2487 88.3467 37.521C88.6566 37.1467 88.9666 36.7724 89.2639 36.3715C91.4203 33.6089 93.9481 31.1582 96.7752 29.089C97.5428 28.4813 98.3229 27.9001 99.1225 27.3259C101.603 25.5894 104.28 24.1553 107.099 23.0541C110.428 21.6857 113.801 20.4431 117.104 19.0217C119.468 18.014 121.751 16.8011 124.052 15.6608C124.914 15.2192 125.751 14.7245 126.786 14.1683C126.725 14.4104 126.641 14.6461 126.535 14.8723C124.594 18.3219 122.245 21.5247 119.538 24.4112C117.17 26.8502 114.709 29.3005 112.273 31.5608C108.569 35.0024 105.235 38.8213 102.323 42.9553C100.518 45.5758 98.3999 47.9659 96.0159 50.0724C94.0552 51.7461 91.9884 53.2909 89.8283 54.6969C88.8097 55.3913 87.7436 56.157 86.7514 56.8388C85.2982 57.8964 84.0029 59.1561 82.905 60.5799C82.2689 61.4492 81.7457 62.3958 81.3481 63.3971C79.5967 67.3134 77.8914 71.224 76.0689 75.0929C73.272 80.8628 69.9257 86.3496 66.0765 91.4769C65.3394 92.4924 64.6414 93.5218 63.9239 94.5443C63.9239 94.5443 64.0606 94.5931 64.0801 94.6001C65.5661 93.8301 67.0144 92.9805 68.5255 92.2636C69.8269 91.6301 71.0556 90.8566 72.1898 89.9567C74.4462 88.2075 76.5568 86.2775 78.5007 84.1857C80.3598 82.1847 81.9558 79.954 83.2499 77.5481C84.2064 75.6059 85.4528 73.8207 86.9464 72.2542C88.3749 70.8776 89.9981 69.719 91.7635 68.8158C93.2495 68.0458 94.8192 67.3498 96.3748 66.6929C98.699 65.6973 100.755 64.1653 102.375 62.2221C103.353 61.0146 104.478 59.9351 105.725 59.009C107.775 57.6872 110.077 56.8053 112.485 56.419C114.184 56.1 115.876 55.8005 117.581 55.5276C119.647 55.1676 121.669 54.5892 123.613 53.8023L124.36 53.5618L124.442 53.7014L122.767 55.3079C119.718 58.2717 117.097 61.647 114.979 65.3359C113.039 68.6113 110.956 71.7918 108.912 74.9862C106.429 78.9145 103 82.1554 98.94 84.4102C97.7618 85.0641 96.5322 85.6203 95.2635 86.0733C93.2011 86.7699 91.1778 87.5781 89.2027 88.4941C86.0151 89.9133 82.6277 90.8303 79.1608 91.2125C76.4698 91.596 73.7537 91.9266 71.0864 92.4288C68.1311 92.893 65.3395 94.0947 62.969 95.9229C62.7549 96.0876 62.5614 96.2776 62.3926 96.4887C57.9637 102.476 53.5526 108.456 49.1591 114.427C48.2531 115.668 47.4252 116.938 46.5583 118.194C46.4675 118.448 46.3766 118.702 46.0821 118.972C46.2184 118.969 46.3543 118.959 46.4894 118.941C48.578 118.21 50.6861 117.486 52.7481 116.767C54.4405 116.159 56.1328 115.551 57.8336 114.858C59.53 114.111 61.0924 113.09 62.458 111.836C64.2046 110.188 66.0382 108.635 67.9509 107.184C71.6771 104.348 76.2954 102.947 80.9646 103.234C83.7612 103.417 86.5356 103.725 89.3364 104.02C93.0451 104.485 96.7119 105.067 100.393 105.611C102.539 105.907 104.706 106.025 106.872 105.963C107.207 105.95 107.54 106.003 107.887 106.017L107.845 106.134C107.733 106.231 107.602 106.304 107.46 106.35C105.787 106.965 104.084 107.481 102.403 108.181C100.722 108.881 99.1462 109.84 97.5402 110.699L91.2557 114.054L86.2661 116.681C82.1986 118.903 77.7651 120.374 73.1782 121.023C69.3852 121.458 65.5439 121.071 61.9151 119.888C60.3336 119.323 58.7157 118.921 57.0992 118.454C55.1564 117.861 53.0961 117.761 51.1042 118.164C49.6186 118.368 48.1682 118.778 46.7947 119.381C45.7025 119.883 44.7831 120.698 44.1529 121.722C39.952 128.694 36.5596 136.122 34.0415 143.862C33.9716 144.058 33.9088 144.234 33.8249 144.469C33.9302 144.484 34.0376 144.477 34.1402 144.449C35.7991 143.873 37.4259 143.263 39.1488 142.755C40.143 142.478 41.099 142.079 41.995 141.567C43.6907 140.51 45.3097 139.335 46.8401 138.05C48.1072 136.958 49.5771 136.127 51.1654 135.604C52.7537 135.082 54.4292 134.879 56.0955 135.007C58.245 135.159 60.405 134.946 62.4845 134.379C66.5387 133.265 70.8329 133.401 74.8067 134.768C76.8567 135.5 78.9418 136.135 80.9374 136.958C84.0758 138.151 87.3415 138.977 90.6696 139.421C90.8414 139.441 91.0142 139.451 91.1871 139.451L91.1172 139.647C90.961 139.591 90.728 139.75 90.5439 139.773C88.0986 140.007 85.6907 140.539 83.3733 141.356C81.3893 142.103 79.4235 142.922 77.5051 143.669C74.4587 145.037 71.2931 146.12 68.0487 146.906C63.3043 148.017 58.3617 147.954 53.6493 146.722C51.6409 146.181 49.4653 145.492 47.3998 144.864C46.7099 144.618 46.0591 144.385 45.4473 144.167C42.2854 143.106 38.8414 143.258 35.7832 144.595C35.2475 144.8 34.7173 145.052 34.2011 145.264C33.9904 145.344 33.8033 145.475 33.6573 145.647C33.5113 145.818 33.4112 146.024 33.3664 146.245C31.7176 151.401 30.561 156.702 29.9122 162.076C29.3934 166.023 29.1422 169.999 29.1606 173.979C29.2264 176.075 29.4499 178.161 29.6203 180.272C29.6716 180.93 29.7814 181.609 29.8521 182.273C29.9896 183.491 29.9351 183.582 28.5861 183.783C28.4507 183.618 28.3295 183.442 28.2237 183.257C28.0587 181.5 27.8156 179.716 27.7817 177.962C27.6528 171.496 28.1695 165.033 29.3241 158.669C30.1175 154.693 31.125 150.761 32.3422 146.893C32.7543 145.74 33.1664 144.586 33.4614 143.391C33.5814 142.958 33.6376 142.51 33.6282 142.061C33.4761 138.759 32.2348 135.602 30.0986 133.083C28.2767 130.911 26.1728 129.035 24.1834 127.023C21.8668 124.833 20.3096 121.96 19.7383 118.821C19.5247 117.279 19.054 115.784 18.3459 114.399C18.016 113.782 17.6477 113.186 17.2435 112.616C16.378 111.357 15.7383 109.957 15.353 108.479C14.8488 106.727 14.4561 104.944 14.1772 103.142C13.4755 98.5083 13.4457 93.797 14.0888 89.1536C14.2106 88.3814 14.2863 87.6147 14.3886 86.8354C14.4724 86.6008 14.5632 86.3466 14.5369 86.0506L14.601 86.1176ZM122.999 54.2884C122.809 54.3408 122.624 54.4072 122.444 54.487C120.717 55.2846 118.888 55.8406 117.01 56.1395C115.369 56.4794 113.73 56.7537 112.083 57.1132C109.891 57.5127 107.808 58.3684 105.967 59.6248C104.901 60.4184 103.936 61.3398 103.094 62.3685C101.308 64.4416 99.0796 66.0869 96.5741 67.183C94.7092 67.9622 92.8879 68.8425 91.1185 69.82C88.8187 71.0151 86.8798 72.8041 85.5026 75.0015C84.7738 76.2404 84.0129 77.4458 83.3441 78.64C81.1862 82.2937 78.4023 85.5385 75.12 88.2255L73.656 89.4884L73.7732 89.5302C77.4389 87.8419 81.0135 85.9617 84.4822 83.8973C83.3052 84.867 82.0512 85.7389 80.7327 86.5045C77.7453 88.1491 74.7147 89.6682 71.6897 91.2333L71.1371 91.6091L71.6755 91.581L80.16 90.2025C83.0865 89.8655 85.9525 89.1233 88.6757 87.9972C90.5887 87.0651 92.5606 86.2597 94.5788 85.5862C96.5276 84.9565 98.3842 84.0702 100.1 82.9505C103.438 80.8447 106.267 78.0216 108.38 74.6861C110.695 71.1034 112.99 67.5137 115.168 63.8821C117.288 60.3282 119.922 57.1083 122.985 54.3275L122.999 54.2884ZM41.9108 52.5049C41.8549 52.6613 41.827 52.7395 41.7921 52.8373C41.2891 54.2451 40.7862 55.6529 40.2832 57.0607C38.7663 60.7521 37.4642 64.5202 36.2666 68.3036C35.7496 70.0591 35.3301 71.8496 34.9762 73.6414C33.8842 78.4543 34.1818 83.4776 35.8344 88.1251C36.3051 89.3957 36.7758 90.6662 37.3066 91.8921C38.0512 93.8311 38.6415 95.8262 39.072 97.8586C39.5605 99.7728 40.3607 101.593 41.4404 103.247C42.7686 105.198 43.9643 107.213 45.22 109.183C45.3088 109.311 45.4046 109.433 45.5071 109.55C45.4286 105.053 44.8082 100.582 43.6594 96.2343C43.8533 96.5643 44.0085 96.9157 44.1219 97.2814C45.1124 100.457 45.7665 103.728 46.0734 107.041C45.9966 107.256 46.154 107.554 46.1748 107.804C46.3054 107.728 46.4037 107.606 46.4512 107.462C47.0032 105.609 47.5483 103.775 48.1199 101.929C48.9584 99.4117 49.6064 96.8352 50.0588 94.221C50.8993 88.6276 50.5363 82.9201 48.9941 77.4808C47.8749 73.465 46.3859 69.5596 44.9164 65.6612C43.8251 63.0757 43.0324 60.3735 42.5538 57.6073C42.2939 55.9931 42.1735 54.2964 41.9108 52.5049ZM63.4269 82.7472C63.453 82.6905 63.474 82.6316 63.4898 82.5712C64.081 80.4232 64.6527 78.2683 65.2244 76.1134C66.1093 73.0142 66.1401 69.7339 65.3134 66.6202C64.845 64.8011 64.6408 62.9237 64.707 61.0458C64.7129 60.4747 64.6992 59.8965 64.7316 59.3128C64.7583 54.0102 63.4705 48.785 60.9837 44.1054C59.9666 42.0222 58.87 39.9768 57.7803 37.9119C55.823 34.241 55.0137 30.0648 55.4576 25.9255C55.4732 25.7136 55.4756 25.5009 55.4648 25.2887C55.3269 25.3583 55.2209 25.4784 55.1689 25.624C52.1913 32.2254 50.221 39.2364 49.3239 46.4221C49.0734 48.5094 48.9335 50.6085 48.9047 52.7105C48.8741 56.4078 49.6658 60.0648 51.2226 63.4162C53.1346 67.2081 55.3802 70.8216 57.933 74.214C59.0968 75.8865 60.1741 77.6164 61.2654 79.3071C61.5887 79.8195 61.845 80.3961 62.1348 80.9406C61.1892 76.3234 59.862 71.793 58.1669 67.3965C59.445 69.7725 60.4529 72.2846 61.1716 74.8859C62.1061 77.4467 62.8677 80.1221 63.4855 82.7681L63.4269 82.7472ZM82.8919 59.0759L83.0481 59.1317C83.097 58.9948 83.2895 58.8872 83.4165 58.7783C84.3328 57.8587 85.2976 56.989 86.3068 56.1728C87.994 54.9015 89.7968 53.7375 91.5285 52.5262C95.1069 50.0407 98.2572 46.9884 100.856 43.4892C102.316 41.4973 103.803 39.4929 105.346 37.575C108.169 34.2584 111.229 31.1513 114.502 28.2783C118.638 24.5013 122.299 20.2341 125.405 15.5709C125.488 15.3362 125.696 15.1239 125.867 14.832C125.769 14.7971 125.676 14.8739 125.642 14.9061C122.963 16.7501 120.093 18.2972 117.08 19.5202C113.691 20.9332 110.252 22.2402 106.805 23.6323C104.164 24.6464 101.652 25.9692 99.3204 27.573C98.6674 28.0452 98.0268 28.544 97.3723 29.0818C94.319 31.3015 91.5958 33.944 89.2845 36.93C88.1154 38.4374 87.2473 40.156 86.7277 41.9917C86.2197 44.0457 85.8845 46.1385 85.7254 48.2482C85.5684 49.7355 85.2802 51.22 85.0575 52.7059C85.0186 52.7948 84.9859 52.8862 84.9597 52.9796C85.1469 52.794 85.3101 52.5856 85.4455 52.3594C86.6519 50.2769 87.8387 48.1874 89.0967 46.1453C90.1173 44.4594 91.2284 42.8279 92.3076 41.163C92.3893 41.0408 92.4818 40.9263 92.584 40.8208L92.8255 40.5763C89.6904 46.8866 85.9739 52.7908 83.0481 59.1317L82.8919 59.0759ZM65.7149 114.675L65.666 114.812C61.9229 115.922 58.0015 116.483 54.0785 117.419C55.2989 117.701 56.3966 117.894 57.4398 118.179C59.2069 118.656 60.9389 119.23 62.706 119.707C66.0233 120.695 69.5091 120.987 72.9455 120.565C77.6242 119.859 82.1375 118.312 86.2679 115.998C87.8879 115.1 89.5329 114.254 91.1794 113.343C93.6351 112.016 96.0559 110.786 98.4782 109.491C100.498 108.34 102.653 107.443 104.892 106.821L105.638 106.581C105.41 106.49 105.166 106.44 104.92 106.434C103.197 106.326 101.466 106.303 99.7522 106.109C95.2191 105.548 90.6875 104.922 86.1418 104.334C83.2259 103.893 80.2699 103.776 77.3277 103.985C74.1055 104.331 71.0282 105.512 68.3985 107.41C66.4671 108.848 64.6201 110.397 62.8665 112.048C61.0298 113.676 58.9269 114.976 56.6501 115.89C56.1939 116.058 55.7377 116.226 55.2941 116.42L55.2591 116.518C58.8973 115.907 62.45 115.309 65.9171 114.725L65.7149 114.675ZM82.1504 53.0784C82.2342 52.8438 82.311 52.6287 82.3949 52.394C83.2542 49.6804 84.094 46.9598 84.9925 44.2601C85.8909 41.5605 86.8785 38.9809 87.7044 36.2994C88.2347 34.6209 88.5525 32.8826 88.6503 31.1252C88.9302 27.2543 88.9054 23.3676 88.5759 19.5011C88.3996 17.2568 88.5393 14.9984 88.9911 12.7924C89.6878 9.1475 90.9437 5.63198 92.7143 2.37073C92.8051 2.11654 92.8959 1.86236 92.9937 1.58862L93.1108 1.63047C92.1381 2.62789 91.1332 3.59183 90.173 4.61577C87.9166 6.91514 85.7983 9.34626 83.8291 11.8964C81.1042 15.5038 79.0473 19.5707 77.756 23.9038C75.7108 31.2959 76.0679 39.1456 78.7757 46.3166C79.8684 48.9525 80.7049 51.688 81.2736 54.4849L81.4311 54.7837C81.4662 54.3773 81.5054 54.0827 81.5181 53.8006C81.4966 52.3818 81.5475 50.9448 81.4604 49.5246C81.2836 46.507 81.0217 43.481 80.7988 40.4689L80.7103 39.1144L80.847 39.1632C81.702 43.7674 82.1924 48.4324 82.3136 53.1147L82.1504 53.0784ZM41.6022 143.036L41.8365 143.119C43.7199 143.345 45.5689 143.798 47.3429 144.469C49.4474 145.111 51.5449 145.772 53.6844 146.316C58.2658 147.561 63.0813 147.678 67.7196 146.656C71.1647 145.853 74.5224 144.711 77.7438 143.248C81.1541 141.629 84.7791 140.511 88.5072 139.927L88.7724 139.801L88.7235 139.938C87.6147 139.652 86.4919 139.406 85.3776 139.074C83.2299 138.306 80.9927 137.728 78.8115 136.993C76.414 136.125 73.9655 135.405 71.4798 134.836C68.9752 134.32 66.3884 134.351 63.8957 134.927C62.742 135.198 61.5241 135.403 60.436 135.675C59.1665 135.939 57.8649 136.009 56.5748 135.883C54.8512 135.717 53.1114 135.894 51.4557 136.403C49.7999 136.913 48.2609 137.745 46.9275 138.853C45.6254 139.909 44.2203 140.884 42.8751 141.815C42.745 141.935 42.609 142.048 42.4676 142.154C43.275 142.127 44.0802 142.054 44.8794 141.936C47.3936 141.649 49.9267 141.566 52.4539 141.687C52.8026 141.647 53.1546 141.726 53.4525 141.912C49.5325 141.987 45.6244 142.375 41.7655 143.072L41.6022 143.036ZM32.1547 132.936C32.2102 132.703 32.2504 132.467 32.2751 132.229C32.3879 130.065 32.5228 128.084 32.5421 125.997C32.6209 121.681 31.8311 117.395 30.2197 113.393C29.5124 111.413 28.5573 109.531 27.3773 107.792C26.205 106.204 24.9323 104.713 23.6136 103.228C21.4773 100.882 19.477 98.4151 17.6225 95.84C16.9728 94.9792 16.4273 94.0442 15.9976 93.0547C15.4641 91.6514 15.1288 90.1867 14.6944 88.7527C14.6401 88.5348 14.5928 88.2975 14.519 88.0727L14.4019 88.0308C14.3276 88.7319 14.2463 89.4525 14.1915 90.1605C13.7825 94.8532 13.9658 99.5782 14.7373 104.224C15.1284 107.472 16.281 110.581 18.1009 113.297C18.3669 113.686 18.595 114.1 18.7824 114.533C19.5197 115.981 20.0342 117.532 20.3086 119.135C20.7911 121.579 21.9537 123.836 23.6625 125.647C24.7638 126.878 25.9725 127.993 27.1812 129.108C28.9403 130.723 30.5094 132.534 31.8581 134.506C31.8581 134.506 31.8581 134.506 32.0143 134.561C31.4944 132.705 30.814 130.898 29.9808 129.161C29.1923 127.424 28.3967 125.706 27.5482 124.014C26.6997 122.322 25.7716 120.667 24.9286 119.021L25.0876 118.946C26.5392 121.117 27.8311 123.392 28.9533 125.751C30.1488 128.074 31.1713 130.512 32.3179 132.972L32.1547 132.936ZM81.5216 59.9534C84.0333 55.4718 85.3391 50.4147 85.3113 45.278C83.5202 50.0199 82.3028 54.9589 81.6849 59.9896L81.5216 59.9534Z" fill="#2F4433"/>
<g clip-path="url(#clip0_0_1)">
<path d="M16.2073 169.089L16.2452 169.11L16.303 169.19L16.2073 169.089Z" fill="#FFCC66"/>
<path d="M22.4714 172.611L22.5091 172.631C22.5091 172.631 22.5039 172.653 22.4714 172.611Z" fill="#FFCC66"/>
<path d="M1.08454 160.489C1.03963 160.52 0.99515 160.553 0.951406 160.59C0.994794 160.552 1.03939 160.518 1.08454 160.489V160.489Z" fill="#FFCC66"/>
<path d="M25.3387 156.555C25.3211 156.546 25.4261 156.641 25.4694 156.675C25.2988 156.62 25.1426 156.535 25.0037 156.422C25.1251 156.445 25.2375 156.49 25.3387 156.555Z" fill="#FFCC66"/>
<path d="M42.953 166.703L42.9424 166.632C42.9638 166.671 42.9646 166.687 42.953 166.703Z" fill="#FFCC66"/>
<path d="M28.2433 175.899C28.2433 175.899 28.2745 175.877 28.2966 175.873L28.3144 175.883L28.2433 175.899Z" fill="#FFCC66"/>
<path d="M45.1266 177.465C45.1703 177.383 45.2248 177.307 45.2862 177.244C45.1407 177.506 45.1213 177.511 45.1266 177.465Z" fill="#FFCC66"/>
</g>
<defs>
<clipPath id="clip0_0_1">
<rect width="46.9067" height="16.0314" fill="white" transform="translate(8.37425 146.928) rotate(28.5162)"/>
</clipPath>
</defs>
</svg>
