<svg width="155" height="216" viewBox="0 0 155 216" fill="none" xmlns="http://www.w3.org/2000/svg">
<g clip-path="url(#clip0_47_15479)">
<path d="M68.666 131.786C69.4264 131.507 70.1547 131.194 70.9081 130.934C72.9678 130.192 74.9782 129.32 76.9271 128.322L81.8999 125.865C83.1528 125.254 84.3556 124.537 85.6211 123.953C88.5473 122.597 91.6708 121.718 94.8734 121.35C99.4311 120.894 104.021 120.858 108.584 121.243L115.843 121.631C117.686 121.734 119.535 121.656 121.364 121.399C121.645 121.353 121.933 121.366 122.209 121.436C122.167 121.554 121.936 121.647 121.778 121.657C120.22 121.974 118.715 122.513 117.309 123.258C114.7 124.398 112.091 125.539 109.366 126.571C102.14 129.348 94.6784 131.464 87.0724 132.894C85.0118 133.32 82.9164 133.553 80.8131 133.591C80.5929 133.587 80.3737 133.56 80.159 133.511C86.603 132.739 92.9693 131.414 99.1875 129.55C105.423 127.771 111.517 125.526 117.417 122.833C107.917 124.775 98.556 126.325 88.9933 127.517L89.0352 127.4C90.0564 127.191 91.0721 126.937 92.0793 126.768C97.8394 125.805 103.612 124.868 109.379 123.886C111.94 123.434 114.471 122.883 117.027 122.385C117.319 122.332 117.603 122.241 117.872 122.114L117.618 122.023C114.06 121.876 110.535 121.697 106.977 121.551C102.813 121.28 98.6331 121.388 94.4882 121.874C91.1172 122.303 87.8471 123.321 84.8269 124.882C82.5051 126.081 80.1972 127.241 77.8825 128.42C77.1792 128.787 76.4315 129.093 75.7157 129.432C75.4516 129.534 75.2254 129.715 75.0682 129.951L77.5655 129.123C81.4245 127.812 85.2724 126.408 89.1816 125.203C94.3693 123.605 99.743 122.694 105.166 122.491C105.684 122.464 106.203 122.501 106.711 122.602L105.936 122.678C98.6225 123.115 91.411 124.616 84.5284 127.135L71.3958 131.725C70.8977 131.889 70.3886 132.016 69.8724 132.107C69.6692 132.222 69.4291 132.253 69.2035 132.194C68.9779 132.134 68.785 131.987 68.666 131.786V131.786Z" fill="#2F4433"/>
<path d="M139.193 68.9655L138.035 69.7424C135.878 71.3652 133.902 73.2172 132.143 75.266C129.965 77.6631 127.852 80.1272 125.591 82.4504C123.33 84.7735 121.294 86.7139 118.955 88.7004C116.616 90.687 114.799 92.1987 112.682 93.9338C109.738 96.4169 106.634 98.7033 103.39 100.778C102.839 101.129 102.255 101.422 101.645 101.655C102.71 100.955 103.808 100.222 104.794 99.5602C106.52 98.3028 108.251 97.0914 109.92 95.7474C111.59 94.4034 113.485 92.6111 115.267 91.1972C118.439 88.5329 121.476 85.7102 124.365 82.7399C126.263 80.8163 127.987 78.7642 129.904 76.8476C131.501 75.2132 133.137 73.5927 134.792 71.9792C135.309 71.4581 135.909 71.0111 136.467 70.3727C136.175 70.511 135.859 70.5964 135.587 70.7417C134.416 71.492 133.206 72.2284 132.067 73.0122C130.929 73.796 130.022 74.4862 129.06 75.2672C127.592 76.4184 126.046 77.5416 124.713 78.8073C121.997 81.2325 119.358 83.7513 116.623 86.1696C115.231 87.4143 113.712 88.525 112.237 89.6957C110.762 90.8665 109.707 91.7243 108.418 92.7414C107.14 93.7212 105.809 94.6294 104.43 95.4617C104.718 95.2117 104.986 94.9546 105.286 94.7311L108.475 91.9677L111.587 89.4195C112.241 88.8816 112.94 88.4038 113.554 87.9176C115.366 86.3599 117.138 84.7883 118.911 83.2166C120.978 81.3753 122.993 79.4936 125.111 77.6928C127.551 75.5429 130.15 73.5822 132.887 71.8277C134.712 70.6968 136.634 69.7305 138.63 68.9405C138.63 68.9405 139.043 68.9558 139.193 68.9655Z" fill="#2F4433"/>
<path d="M56.722 73.4568C55.3029 79.6938 54.5051 86.0558 54.3401 92.4494C54.2435 99.4149 55.4357 106.337 57.8563 112.866C58.1476 113.676 58.3968 114.501 58.6027 115.337C58.1959 114.442 57.7961 113.528 57.3488 112.684C54.287 104.635 53.157 95.9769 54.0499 87.4069C54.366 83.4408 55.127 79.5235 55.7764 75.6104C56.2201 73.0128 56.4936 70.3986 56.8451 67.8123C56.8403 67.741 56.8502 67.6694 56.8742 67.6022C56.8983 67.5349 56.9359 67.4732 56.9848 67.4212C57.049 67.7338 57.0902 68.0507 57.1084 68.3693C57.0762 71.0477 57.1097 73.7275 56.9464 76.4032C56.6944 80.4362 56.2653 84.4722 56.0064 88.5248C55.7158 94.0753 56.1011 99.64 57.1535 105.096C57.1548 105.225 57.1102 105.349 57.0278 105.448L56.6128 104.021C56.4987 103.539 56.3652 103.051 56.2776 102.556C55.2604 97.2636 54.9701 91.856 55.4147 86.4834L56.607 74.5181L56.722 73.4568Z" fill="#2F4433"/>
<path d="M29.7999 102.225C29.842 102.326 29.8705 102.433 29.8847 102.542C29.9109 103.675 30.1725 104.789 30.6529 105.815C31.802 108.761 32.9372 111.746 34.2244 114.676C35.0241 116.505 36.0289 118.253 36.9471 120.058C37.8654 121.863 38.5134 122.822 39.2742 124.329C40.035 125.835 40.6328 126.688 41.1971 127.882C42.4658 130.331 43.4716 132.907 44.1975 135.569L45.4183 140.04C45.4992 140.337 45.5302 140.646 45.5098 140.954L45.2201 140.101C44.5281 137.847 43.8696 135.562 43.1316 133.314C42.5069 131.392 41.695 129.536 40.7076 127.773C39.5663 125.668 38.4517 123.55 37.2574 121.47C34.723 116.937 32.5709 112.201 30.8236 107.309C30.7642 107.144 30.6663 106.996 30.5379 106.876C31.1675 110.973 32.1415 115.009 33.4493 118.941C34.7807 122.856 36.3171 126.69 37.7015 130.58C37.3183 129.804 36.9086 129.04 36.5784 128.238C35.4153 125.331 34.2313 122.483 33.1031 119.478C31.4384 114.627 30.2773 109.617 29.6381 104.526C29.5478 103.855 29.5957 103.166 29.5709 102.496C29.5883 102.386 29.6262 102.279 29.6827 102.183L29.7999 102.225Z" fill="#2F4433"/>
<path d="M65.7953 159.358L67.0241 159.554C70.1811 160.189 73.3902 160.531 76.6106 160.576C80.9151 160.568 85.1861 159.811 89.2328 158.338C92.8402 157.064 96.5499 156.103 100.321 155.465L100.783 155.343L100.832 155.206C100.583 155.192 100.333 155.191 100.084 155.204C95.9231 155.327 91.8134 155.799 87.6968 156.29C84.586 156.678 81.4891 157.027 78.4899 157.411C77.6487 157.509 76.7991 157.509 75.9581 157.41L76.8789 157.298C82.4295 156.613 87.9871 155.909 93.5434 155.27C96.848 154.914 100.173 154.791 103.495 154.901L104.85 154.988L105.153 154.942L105.083 155.137L102.63 155.165C102.422 155.296 102.2 155.402 101.967 155.479C97.3337 156.375 92.7745 157.621 88.3285 159.206C82.7746 161.036 76.8622 161.496 71.0951 160.546C69.3363 160.292 67.6 159.914 65.8691 159.582L65.7953 159.358Z" fill="#2F4433"/>
<path d="M111.056 51.5269C111.681 50.8242 112.294 50.095 112.931 49.4189C114.389 47.9081 115.985 46.5368 117.697 45.3228C118.73 44.5893 119.704 43.8349 120.705 43.0679C122.366 42.052 124.078 41.1423 125.785 40.1865C126.456 39.7869 127.133 39.4334 127.804 39.0338L131.4 36.8568C132.696 36.0631 133.992 35.2695 135.276 34.4493C137.322 33.1728 139.173 31.6057 140.769 29.7971C140.887 29.6776 141.014 29.5683 141.15 29.4703L141.287 29.5191C140.775 30.1854 140.225 30.8207 139.638 31.4216C138.441 32.5167 137.179 33.5384 135.859 34.4812C133.677 35.9064 131.381 37.4014 129.082 38.7847C126.782 40.168 124.906 41.1071 122.82 42.3242C120.708 43.5136 118.697 44.8749 116.808 46.3942C115.926 47.1375 115.007 47.8011 114.137 48.5708C113.268 49.3406 112.355 50.2933 111.47 51.1678L111.082 51.5143L111.056 51.5269Z" fill="#2F4433"/>
<path d="M108.589 16.9557C107.676 18.8342 106.802 20.7267 105.891 22.474C103.209 27.5279 101.533 33.055 100.958 38.7473C100.677 41.6898 100.482 44.6405 100.221 47.5899C100.061 50.2104 99.7321 52.818 99.2372 55.3965C99.1503 55.826 99.0021 56.2409 98.7971 56.6283C98.8154 56.5542 98.8411 56.4821 98.874 56.4132C99.5643 51.7627 100.01 47.0794 100.21 42.3826C100.395 38.8028 100.928 35.2492 101.799 31.7717C102.624 28.7207 103.789 25.7717 105.27 22.9798C106.227 21.2269 107.131 19.4335 108.049 17.6667L108.518 16.9082L108.589 16.9557Z" fill="#2F4433"/>
<path d="M125.119 75.8215C123.486 77.3107 121.84 78.839 120.214 80.3087C118.795 81.5664 117.232 82.6512 115.558 83.5403C114.079 84.2907 112.633 85.0747 111.193 85.8391C110.761 86.0599 110.337 86.2611 109.938 86.5154C107.895 87.827 106.091 89.4794 104.604 91.4007C103.042 93.246 101.5 95.0982 99.8348 96.8626C98.2077 98.5964 96.4208 100.173 94.4981 101.57C94.0032 101.909 93.4836 102.21 92.9437 102.47L88.6949 104.811L88.5682 104.611L88.9741 104.337L91.1439 103.194L93.2829 101.952C94.9156 100.888 96.4424 99.6684 97.8421 98.3114C100.452 95.8003 102.884 93.1108 105.121 90.2624C106.309 88.812 107.71 87.5505 109.276 86.5212C110.206 85.9497 111.207 85.4914 112.175 84.9995C114.682 83.9316 117.045 82.5539 119.21 80.8983C121.041 79.3476 122.833 77.7829 124.645 76.2252C124.781 76.1178 124.925 76.022 125.077 75.9388L125.119 75.8215Z" fill="#2F4433"/>
<path d="M69.4511 52.1855C70.1005 55.7909 70.6649 59.388 71.3938 62.9557C72.3425 67.572 73.8646 72.0625 75.1761 76.5879C76.1925 79.9055 76.9341 83.1911 77.7804 86.492C78.1089 87.7828 78.2412 89.116 78.1729 90.4467C78.2288 90.2902 78.1216 90.0976 78.1119 89.9398C77.8041 87.4324 77.2652 84.9592 76.5021 82.5517C75.0973 77.7945 73.6465 73.0429 72.2417 68.2857C70.9716 63.9924 70.0972 59.5913 69.6294 55.1376C69.5393 54.1573 69.4952 53.1714 69.412 52.1716L69.4511 52.1855Z" fill="#2F4433"/>
<path d="M69.7998 42.2119C69.4135 44.5874 69.0077 46.956 68.6604 49.3454C68.3093 51.7248 68.1865 54.1321 68.2937 56.5345C68.4179 58.9601 68.5686 61.3731 68.8504 63.7889C69.1322 66.2047 69.5815 68.4598 70.0349 70.8266C70.5316 73.203 71.1636 75.549 71.928 77.8529L71.7149 77.4019C71.6351 77.2444 71.5684 77.0804 71.5156 76.9118C69.9203 72.5216 68.8766 67.9494 68.4084 63.3003C67.7903 58.7385 67.7259 54.118 68.2166 49.5397C68.4835 47.1705 68.9382 44.8263 69.5765 42.529L69.7162 42.1379L69.7998 42.2119Z" fill="#2F4433"/>
<path d="M58.9228 81.4087C61.7049 91.5922 62.491 102.22 61.2376 112.707L61.2043 112.43L61.185 112.115C61.1978 109.121 61.1325 106.099 61.2305 103.113C61.3213 96.7572 60.7007 90.412 59.3803 84.1958C59.2036 83.2729 59.0799 82.3247 58.9228 81.4087Z" fill="#2F4433"/>
<path d="M51.3643 93.2603C51.6615 95.5713 51.9616 97.751 52.3272 99.9322C52.9753 103.121 53.8991 106.247 55.0881 109.275C56.2887 112.57 57.6148 115.822 58.8614 119.112C59.4576 120.647 59.9617 122.195 60.5243 123.763C60.7625 124.364 60.8254 125.021 60.7059 125.657C59.9043 122.76 58.8762 119.93 57.6308 117.195C55.4934 112.194 53.7118 107.049 52.2996 101.796C51.6472 99.0956 51.3136 96.3272 51.3056 93.548C51.3056 93.548 51.3684 93.372 51.3964 93.2938L51.3643 93.2603Z" fill="#2F4433"/>
<path d="M95.6246 35.1883C95.4989 35.5403 95.3732 35.8922 95.2544 36.2246C93.8131 42.386 93.6047 48.7711 94.6412 55.0113C95.068 57.6993 95.4947 60.3873 95.7834 63.0922C96.072 65.797 96.242 68.5256 96.4386 71.2417C96.469 71.6551 96.4108 72.0703 96.2677 72.4594L96.0549 68.9879C95.7963 64.9048 95.0899 60.9042 94.5091 56.8602C93.9952 53.6096 93.6965 50.3284 93.6148 47.0379C93.6032 43.4791 94.0487 39.9331 94.9403 36.4872C95.101 36.0375 95.2617 35.5878 95.4153 35.1576L95.6246 35.1883Z" fill="#2F4433"/>
<path d="M67.7025 46.0487C64.7252 59.5591 65.7865 72.5499 72.6857 84.9145C72.2732 84.282 71.8772 83.7878 71.5874 83.2433C69.5148 79.5058 67.9836 75.4919 67.0397 71.322C65.8874 65.8818 65.5079 60.3055 65.9122 54.7577C66.1953 51.8886 66.7514 49.0528 67.5727 46.289C67.6066 46.2042 67.6501 46.1235 67.7025 46.0487V46.0487Z" fill="#2F4433"/>
<path d="M134.58 33.0098L130.254 35.8741C129.941 36.0711 129.622 36.2877 129.29 36.4777L122.652 40.3902C120.522 41.4977 118.463 42.7353 116.484 44.0958C113.017 46.536 109.903 49.4452 107.232 52.7404C105.849 54.6167 104.717 56.6658 103.865 58.8357C103.779 59.121 103.632 59.3844 103.435 59.6081C103.435 59.6081 103.491 59.4517 103.519 59.3734C104.875 55.4837 107.126 51.9675 110.092 49.1099C113.003 46.2644 116.231 43.763 119.712 41.655C121.134 40.818 122.496 40.0258 124.028 39.2502C124.931 38.7569 125.814 38.2567 126.77 37.7382L134.434 33.0462L134.647 32.9456L134.58 33.0098Z" fill="#2F4433"/>
<path d="M55.4865 157.77C56.2859 157.504 57.0603 157.185 57.8722 156.946C62.0823 155.585 66.4572 154.804 70.8767 154.625C72.6412 154.616 74.4224 154.745 76.1995 154.762L88.1928 154.902C88.3984 154.893 88.6036 154.928 88.7939 155.007L88.1299 155.078C84.3933 155.386 80.639 155.408 76.8995 155.145C69.9541 154.618 62.9725 155.49 56.3667 157.709L55.5352 157.941L55.4865 157.77Z" fill="#2F4433"/>
<path d="M105.326 20.7287C104.95 21.4103 104.575 22.0919 104.186 22.747C102.157 25.9936 100.444 29.4276 99.0698 33.0016C97.1284 38.2985 96.0652 43.8769 95.9221 49.5158L95.8925 49.9683C95.8925 49.9683 95.8925 49.9683 95.8227 50.1638C95.7218 45.1865 96.4168 40.2243 97.8813 35.4653C99.4485 30.142 101.971 25.1483 105.326 20.7287V20.7287Z" fill="#2F4433"/>
<path d="M46.7523 149.247L46.885 148.876L47.3948 150.16L47.3599 150.258C47.1682 150.087 46.9922 149.898 46.8343 149.696C45.8921 148.389 44.8969 147.107 44.0287 145.717C43.1604 144.326 41.9926 142.233 41.0144 140.473C40.0361 138.712 39.3938 137.49 38.633 135.984C37.0584 132.956 35.6741 129.833 34.4884 126.632C34.0121 125.315 33.5078 124.077 33.072 122.708C33.0093 122.538 32.969 122.361 32.9523 122.181C36.5617 131.676 41.1887 140.751 46.7523 149.247V149.247Z" fill="#2F4433"/>
<path d="M104.073 65.8333C104.803 64.5287 105.495 63.2102 106.283 61.9266C108.358 58.5975 110.815 55.5238 113.606 52.7688C114.954 51.3984 116.315 50.0545 117.759 48.7846C119.821 46.9257 122.095 45.318 124.534 43.9951C124.801 43.8558 125.056 43.6965 125.299 43.5187C127.342 42.1759 129.411 40.8206 131.442 39.4514C132.161 38.9085 132.908 38.4025 133.679 37.9354C132.445 38.8617 131.25 39.802 129.992 40.6752C128.38 41.7971 126.736 42.8856 125.092 43.974C124.314 44.4896 123.485 44.899 122.734 45.3363C116.283 49.8582 110.733 55.5481 106.371 62.1123C105.623 63.3442 104.94 64.5775 104.252 65.7647L104.073 65.8333Z" fill="#2F4433"/>
<path d="M61.5339 84.392C62.2226 85.5125 62.7294 86.7354 63.0355 88.0152C64.4296 93.2145 64.9351 98.6134 64.5303 103.983C64.4331 105.734 64.2313 107.47 64.0755 109.2L63.9388 109.152C63.9995 107.872 64.0336 106.606 64.1138 105.334C64.2514 102.082 64.202 98.8252 63.9659 95.5795C63.6657 91.9427 62.9291 88.3557 61.7721 84.896L61.5339 84.392Z" fill="#2F4433"/>
<path d="M118.922 52.6174L116.193 56.5593C114.58 58.7172 112.838 60.7749 110.975 62.7209C108.785 65.2093 106.467 67.5826 104.032 69.8313C103.014 70.7687 101.817 71.5316 100.704 72.3684L100.586 72.3266C100.96 72.0192 101.327 71.7314 101.734 71.4576C103.186 70.3213 104.55 69.0767 105.816 67.7346C108.939 64.6613 111.824 61.3925 114.645 58.0568C116.066 56.3596 117.292 54.5926 118.693 52.8884C118.713 52.8221 118.737 52.7569 118.763 52.6929L118.922 52.6174Z" fill="#2F4433"/>
<path d="M110.138 93.9067C109.996 94.0749 109.843 94.2339 109.681 94.3831C107.947 95.7257 106.225 97.0948 104.478 98.4109C102.73 99.727 101.096 100.973 99.3255 102.171C97.4868 103.366 95.5435 104.391 93.5196 105.234C92.8517 105.548 92.1569 105.802 91.4436 105.991L93.6733 104.804L97.3695 102.839C98.0867 102.434 98.8234 102.035 99.496 101.57C101.729 99.9424 103.956 98.2687 106.189 96.641L110.042 93.8062L110.138 93.9067Z" fill="#2F4433"/>
<path d="M80.8804 82.9914C80.4168 81.3926 79.829 79.7715 79.463 78.2076C78.2379 73.9335 77.0784 69.6608 75.8002 65.4119C75.2377 63.5352 74.4632 61.7592 73.7681 59.9455C73.6762 59.7318 73.6385 59.4987 73.6584 59.2668C74.0275 60.0822 74.4232 60.8851 74.7854 61.72C76.242 65.4316 77.4496 69.2366 78.4002 73.1096L80.8334 82.1368C80.9048 82.4041 80.9625 82.6749 81.006 82.9481L80.8804 82.9914Z" fill="#2F4433"/>
<path d="M93.4331 152.805C84.731 151.753 75.9208 151.977 67.2813 153.473C71.5593 152.487 75.9278 151.949 80.3161 151.868C84.7093 151.734 89.1042 152.049 93.4331 152.805Z" fill="#2F4433"/>
<path d="M108.649 99.306C113.612 96.5497 118.144 93.0806 122.103 89.0093C118.501 93.4648 113.888 96.9951 108.649 99.306V99.306Z" fill="#2F4433"/>
<path d="M126.584 45.0361C121.828 47.8802 117.567 51.4816 113.969 55.6984C117.323 51.2429 121.634 47.5988 126.584 45.0361V45.0361Z" fill="#2F4433"/>
<path d="M87.1447 130.781L104.561 126.773C98.8613 128.535 93.0401 129.875 87.1447 130.781Z" fill="#2F4433"/>
<path d="M97.9716 51.174C97.6373 45.8637 98.2015 40.5341 99.6404 35.4103C99.5565 35.6449 99.4727 35.8796 99.5256 36.163C99.198 38.2508 98.7629 40.4546 98.4339 42.608C98.0693 45.2347 97.9172 47.8865 97.979 50.5373L97.9716 51.174Z" fill="#2F4433"/>
<path d="M46.3168 137.031C45.1494 132.685 43.4777 128.492 41.3357 124.536C43.7725 128.347 45.4628 132.587 46.3168 137.031V137.031Z" fill="#2F4433"/>
<path d="M30.149 113.881L32.094 123.042C31.0303 120.092 30.3759 117.01 30.149 113.881V113.881Z" fill="#2F4433"/>
<path d="M97.0116 31.7371C97.9847 30.1224 98.9384 28.5008 99.9115 26.8862L100.029 26.928C99.0751 28.5497 98.0949 30.1839 97.1413 31.8055L97.0116 31.7371Z" fill="#2F4433"/>
<path d="M29.601 101.118L29.7959 101.805C30.3263 103.648 30.8303 105.503 31.4332 107.328C31.9778 108.755 32.7532 110.083 33.7284 111.257C35.8967 114.102 38.2149 116.829 40.6732 119.427C43.5354 122.685 45.6479 126.533 46.8616 130.699C47.9004 134.078 48.3882 137.602 48.3065 141.137C48.2913 143.337 48.1395 145.487 48.0072 147.645C47.8876 148.94 47.9787 150.246 48.277 151.512C48.6599 152.905 48.8975 154.335 49.23 155.931C49.3627 155.56 49.4605 155.286 49.5513 155.032C51.4617 149.804 53.7808 144.734 56.4868 139.871C57.4014 138.235 58.4457 136.668 59.3798 135.039C59.7092 134.513 59.9582 133.941 60.1186 133.341C60.6541 131.33 60.8634 129.246 60.7386 127.168C60.6056 125.994 60.1714 124.874 59.4781 123.918C58.2684 121.942 57.0713 119.993 55.7401 118.173C54.7346 116.676 53.9943 115.017 53.5515 113.268C53.3163 112.324 53.035 111.386 52.8263 110.429C52.3332 108.62 51.6985 106.852 50.9281 105.143C49.0467 100.761 48.3768 95.9529 48.9885 91.2209C49.2552 89.2406 49.6265 87.2757 50.1008 85.3345C51.2869 80.751 52.8233 76.2654 54.6961 71.9171C55.1921 70.5288 55.8442 69.1964 56.3987 67.8291C56.5315 67.4576 56.6642 67.0861 56.7969 66.7146C57.2264 66.868 57.1816 67.1166 57.2024 67.3665C57.3997 68.8481 57.5579 70.3157 57.8276 71.7791C58.3802 74.734 59.2543 77.6192 60.4341 80.3831C62.1049 84.4884 63.5462 88.6837 64.7513 92.9497C66.0451 97.871 66.4183 102.99 65.8518 108.049C65.5084 110.632 64.9369 113.18 64.1443 115.663C63.4148 118.137 62.6267 120.589 61.9167 123.069C61.5603 124.502 61.3894 125.975 61.408 127.452C61.3905 128.857 61.2223 130.252 61.1197 131.648C61.0429 131.863 60.959 132.098 61.0215 132.539C61.1784 132.38 61.3265 132.212 61.4654 132.036C65.3366 126.253 69.6402 120.802 73.7764 115.202C74.5065 114.206 75.2825 113.204 75.9805 112.175C76.4502 111.441 76.8763 110.68 77.2568 109.897C78.1859 107.832 78.5718 105.563 78.3778 103.308C78.2208 100.168 77.3014 97.1154 75.699 94.4134C74.7305 92.8107 73.6488 91.2777 72.6007 89.7127C70.9045 87.1885 69.1359 84.6825 67.5527 82.0884C64.5115 77.2408 63.0685 71.5581 63.4273 65.8422C63.7833 58.8248 65.2651 51.9095 67.8159 45.3616C68.5144 43.4063 69.4863 41.5487 70.3215 39.6422C70.4814 39.3348 70.6609 39.038 70.859 38.7539L71.0153 38.8097C70.9384 39.0248 71.0443 39.2831 71.033 39.4995C70.8396 41.7184 70.8833 43.9514 71.1632 46.1606C71.4849 48.4293 72.1888 50.6266 73.2449 52.6589C74.5478 55.1749 75.8785 57.6126 77.1744 60.1481C79.3567 64.5099 80.4723 69.3293 80.4292 74.2093C80.4301 75.0695 80.438 75.9101 80.4194 76.7633C80.3988 78.3175 80.5855 79.8672 80.9747 81.3714C81.9279 85.0284 81.8188 88.8828 80.6603 92.4818C80.1923 93.7918 79.8929 95.1842 79.5365 96.49C78.9668 98.3872 78.7719 100.377 78.9627 102.348C79.1871 104.32 79.0413 106.317 78.5326 108.236C78.516 108.345 78.5136 108.455 78.5254 108.564C78.61 108.487 78.6906 108.405 78.7669 108.32C82.0185 104.005 85.01 99.5004 87.7255 94.8295C90.0503 90.6837 92.1364 86.4084 93.9734 82.0245C94.7007 80.0728 95.2837 78.0702 95.7176 76.0331C96.3495 72.8173 96.0746 69.4896 94.9237 66.423C94.1774 63.9516 93.131 61.7036 92.4098 59.2852C90.295 52.5271 90.2292 45.2914 92.2206 38.4921C93.5631 34.1494 95.659 30.0768 98.4123 26.4608C100.339 23.9711 102.438 21.619 104.692 19.4218C105.846 18.2246 107.103 17.1084 108.329 15.9587C108.392 15.7827 108.675 15.7296 108.968 15.5256C108.96 15.724 108.933 15.9212 108.89 16.1149C108.533 17.1121 108.191 18.0702 107.691 19.0381C106.238 22.1466 105.218 25.4392 104.657 28.8241C104.317 30.9286 104.249 33.0678 104.453 35.1892C104.733 38.7709 104.736 42.3692 104.461 45.9517C104.34 47.9047 103.989 49.8369 103.417 51.7083C103.324 51.9686 103.3 52.2487 103.347 52.521C103.657 52.1467 103.967 51.7724 104.264 51.3715C106.42 48.6089 108.948 46.1582 111.775 44.089C112.543 43.4813 113.323 42.9001 114.123 42.3259C116.603 40.5894 119.28 39.1553 122.099 38.0541C125.428 36.6857 128.801 35.4431 132.104 34.0217C134.468 33.014 136.751 31.8011 139.052 30.6608C139.914 30.2192 140.751 29.7245 141.786 29.1683C141.725 29.4104 141.641 29.6461 141.535 29.8723C139.594 33.3219 137.245 36.5247 134.538 39.4112C132.17 41.8502 129.709 44.3005 127.273 46.5608C123.569 50.0024 120.235 53.8213 117.323 57.9553C115.518 60.5758 113.4 62.9659 111.016 65.0724C109.055 66.7461 106.988 68.2909 104.828 69.6969C103.81 70.3913 102.744 71.157 101.751 71.8388C100.298 72.8964 99.0029 74.1561 97.905 75.5799C97.2689 76.4492 96.7457 77.3958 96.3481 78.3971C94.5967 82.3134 92.8914 86.224 91.0689 90.0929C88.272 95.8628 84.9257 101.35 81.0765 106.477C80.3394 107.492 79.6414 108.522 78.9239 109.544C78.9239 109.544 79.0606 109.593 79.0801 109.6C80.5661 108.83 82.0144 107.98 83.5255 107.264C84.8269 106.63 86.0556 105.857 87.1898 104.957C89.4462 103.208 91.5568 101.277 93.5007 99.1857C95.3598 97.1847 96.9558 94.954 98.2499 92.5481C99.2064 90.6059 100.453 88.8207 101.946 87.2542C103.375 85.8776 104.998 84.719 106.764 83.8158C108.25 83.0458 109.819 82.3498 111.375 81.6929C113.699 80.6973 115.755 79.1653 117.375 77.2221C118.353 76.0146 119.478 74.9351 120.725 74.009C122.775 72.6872 125.077 71.8053 127.485 71.419C129.184 71.1 130.876 70.8005 132.581 70.5276C134.647 70.1676 136.669 69.5892 138.613 68.8023L139.36 68.5618L139.442 68.7014L137.767 70.3079C134.718 73.2717 132.097 76.647 129.979 80.3359C128.039 83.6113 125.956 86.7918 123.912 89.9862C121.429 93.9145 118 97.1554 113.94 99.4102C112.762 100.064 111.532 100.62 110.263 101.073C108.201 101.77 106.178 102.578 104.203 103.494C101.015 104.913 97.6277 105.83 94.1608 106.212C91.4698 106.596 88.7537 106.927 86.0864 107.429C83.1311 107.893 80.3395 109.095 77.969 110.923C77.7549 111.088 77.5614 111.278 77.3926 111.489C72.9637 117.476 68.5526 123.456 64.1591 129.427C63.2531 130.668 62.4252 131.938 61.5583 133.194C61.4675 133.448 61.3766 133.702 61.0821 133.972C61.2184 133.969 61.3543 133.959 61.4894 133.941C63.578 133.21 65.6861 132.486 67.7481 131.767C69.4405 131.159 71.1328 130.551 72.8336 129.858C74.53 129.111 76.0924 128.09 77.458 126.836C79.2046 125.188 81.0382 123.635 82.9509 122.184C86.6771 119.348 91.2954 117.947 95.9646 118.234C98.7612 118.417 101.536 118.725 104.336 119.02C108.045 119.485 111.712 120.067 115.393 120.611C117.539 120.907 119.706 121.025 121.872 120.963C122.207 120.95 122.54 121.003 122.887 121.017L122.845 121.134C122.733 121.231 122.602 121.304 122.46 121.35C120.787 121.965 119.084 122.481 117.403 123.181C115.722 123.881 114.146 124.84 112.54 125.699L106.256 129.054L101.266 131.681C97.1986 133.903 92.7651 135.374 88.1782 136.023C84.3852 136.458 80.5439 136.071 76.9151 134.888C75.3336 134.323 73.7157 133.921 72.0992 133.454C70.1564 132.861 68.0961 132.761 66.1042 133.164C64.6186 133.368 63.1682 133.778 61.7947 134.381C60.7025 134.883 59.7831 135.698 59.1529 136.722C54.952 143.694 51.5596 151.122 49.0415 158.862C48.9716 159.058 48.9088 159.234 48.8249 159.469C48.9302 159.484 49.0376 159.477 49.1402 159.449C50.7991 158.873 52.4259 158.263 54.1488 157.755C55.143 157.478 56.099 157.079 56.995 156.567C58.6907 155.51 60.3097 154.335 61.8401 153.05C63.1072 151.958 64.5771 151.127 66.1654 150.604C67.7537 150.082 69.4292 149.879 71.0955 150.007C73.245 150.159 75.405 149.946 77.4845 149.379C81.5387 148.265 85.8329 148.401 89.8067 149.768C91.8567 150.5 93.9418 151.135 95.9374 151.958C99.0758 153.151 102.341 153.977 105.67 154.421C105.841 154.441 106.014 154.451 106.187 154.451L106.117 154.647C105.961 154.591 105.728 154.75 105.544 154.773C103.099 155.007 100.691 155.539 98.3733 156.356C96.3893 157.103 94.4235 157.922 92.5051 158.669C89.4587 160.037 86.2931 161.12 83.0487 161.906C78.3043 163.017 73.3617 162.954 68.6493 161.722C66.6409 161.181 64.4653 160.492 62.3998 159.864C61.7099 159.618 61.0591 159.385 60.4473 159.167C57.2854 158.106 53.8414 158.258 50.7832 159.595C50.2475 159.8 49.7173 160.052 49.2011 160.264C48.9904 160.344 48.8033 160.475 48.6573 160.647C48.5113 160.818 48.4112 161.024 48.3664 161.245C46.7176 166.401 45.561 171.702 44.9122 177.076C44.3934 181.023 44.1422 184.999 44.1606 188.979C44.2264 191.075 44.4499 193.161 44.6203 195.272C44.6716 195.93 44.7814 196.609 44.8521 197.273C44.9896 198.491 44.9351 198.582 43.5861 198.783C43.4507 198.618 43.3295 198.442 43.2237 198.257C43.0587 196.5 42.8156 194.716 42.7817 192.962C42.6528 186.496 43.1695 180.033 44.3241 173.669C45.1175 169.693 46.125 165.761 47.3422 161.893C47.7543 160.74 48.1664 159.586 48.4614 158.391C48.5814 157.958 48.6376 157.51 48.6282 157.061C48.4761 153.759 47.2348 150.602 45.0986 148.083C43.2767 145.911 41.1728 144.035 39.1834 142.023C36.8668 139.833 35.3096 136.96 34.7383 133.821C34.5247 132.279 34.054 130.784 33.3459 129.399C33.016 128.782 32.6477 128.186 32.2435 127.616C31.378 126.357 30.7383 124.957 30.353 123.479C29.8488 121.727 29.4561 119.944 29.1772 118.142C28.4755 113.508 28.4457 108.797 29.0888 104.154C29.2106 103.381 29.2863 102.615 29.3886 101.835C29.4724 101.601 29.5632 101.347 29.5369 101.051L29.601 101.118ZM137.999 69.2884C137.809 69.3408 137.624 69.4072 137.444 69.487C135.717 70.2846 133.888 70.8406 132.01 71.1395C130.369 71.4794 128.73 71.7537 127.083 72.1132C124.891 72.5127 122.808 73.3684 120.967 74.6248C119.901 75.4184 118.936 76.3398 118.094 77.3685C116.308 79.4416 114.08 81.0869 111.574 82.183C109.709 82.9622 107.888 83.8425 106.119 84.82C103.819 86.0151 101.88 87.8041 100.503 90.0015C99.7738 91.2404 99.0129 92.4458 98.3441 93.64C96.1862 97.2937 93.4023 100.538 90.12 103.225L88.656 104.488L88.7732 104.53C92.4389 102.842 96.0135 100.962 99.4822 98.8973C98.3052 99.867 97.0512 100.739 95.7327 101.504C92.7453 103.149 89.7147 104.668 86.6897 106.233L86.1371 106.609L86.6755 106.581L95.16 105.202C98.0865 104.866 100.952 104.123 103.676 102.997C105.589 102.065 107.561 101.26 109.579 100.586C111.528 99.9565 113.384 99.0702 115.1 97.9505C118.438 95.8447 121.267 93.0216 123.38 89.6861C125.695 86.1034 127.99 82.5137 130.168 78.8821C132.288 75.3282 134.922 72.1083 137.985 69.3275L137.999 69.2884ZM56.9108 67.5049C56.8549 67.6613 56.827 67.7395 56.7921 67.8373C56.2891 69.2451 55.7862 70.6529 55.2832 72.0607C53.7663 75.7521 52.4642 79.5202 51.2666 83.3036C50.7496 85.0591 50.3301 86.8496 49.9762 88.6414C48.8842 93.4543 49.1818 98.4776 50.8344 103.125C51.3051 104.396 51.7758 105.666 52.3066 106.892C53.0512 108.831 53.6415 110.826 54.072 112.859C54.5605 114.773 55.3607 116.593 56.4404 118.247C57.7686 120.198 58.9643 122.213 60.22 124.183C60.3088 124.311 60.4046 124.433 60.5071 124.55C60.4286 120.053 59.8082 115.582 58.6594 111.234C58.8533 111.564 59.0085 111.916 59.1219 112.281C60.1124 115.457 60.7665 118.728 61.0734 122.041C60.9966 122.256 61.154 122.554 61.1748 122.804C61.3054 122.728 61.4037 122.606 61.4512 122.462C62.0032 120.609 62.5483 118.775 63.1199 116.929C63.9584 114.412 64.6064 111.835 65.0588 109.221C65.8993 103.628 65.5363 97.9201 63.9941 92.4808C62.8749 88.465 61.3859 84.5596 59.9164 80.6612C58.8251 78.0757 58.0324 75.3735 57.5538 72.6073C57.2939 70.9931 57.1735 69.2964 56.9108 67.5049ZM78.4269 97.7472C78.453 97.6905 78.474 97.6316 78.4898 97.5712C79.081 95.4232 79.6527 93.2683 80.2244 91.1134C81.1093 88.0142 81.1401 84.7339 80.3134 81.6202C79.845 79.8011 79.6408 77.9237 79.707 76.0458C79.7129 75.4747 79.6992 74.8965 79.7316 74.3128C79.7583 69.0102 78.4705 63.785 75.9837 59.1054C74.9666 57.0222 73.87 54.9768 72.7803 52.9119C70.823 49.241 70.0137 45.0648 70.4576 40.9255C70.4732 40.7136 70.4756 40.5009 70.4648 40.2887C70.3269 40.3583 70.2209 40.4784 70.1689 40.624C67.1913 47.2254 65.221 54.2364 64.3239 61.4221C64.0734 63.5094 63.9335 65.6085 63.9047 67.7105C63.8741 71.4078 64.6658 75.0648 66.2226 78.4162C68.1346 82.2081 70.3802 85.8216 72.933 89.214C74.0968 90.8865 75.1741 92.6164 76.2654 94.3071C76.5887 94.8195 76.845 95.3961 77.1348 95.9406C76.1892 91.3234 74.862 86.793 73.1669 82.3965C74.445 84.7725 75.4529 87.2846 76.1716 89.8859C77.1061 92.4467 77.8677 95.1221 78.4855 97.7681L78.4269 97.7472ZM97.8919 74.0759L98.0481 74.1317C98.097 73.9948 98.2895 73.8872 98.4165 73.7783C99.3328 72.8587 100.298 71.989 101.307 71.1728C102.994 69.9015 104.797 68.7375 106.529 67.5262C110.107 65.0407 113.257 61.9884 115.856 58.4892C117.316 56.4973 118.803 54.4929 120.346 52.575C123.169 49.2584 126.229 46.1513 129.502 43.2783C133.638 39.5013 137.299 35.2341 140.405 30.5709C140.488 30.3362 140.696 30.1239 140.867 29.832C140.769 29.7971 140.676 29.8739 140.642 29.9061C137.963 31.7501 135.093 33.2972 132.08 34.5202C128.691 35.9332 125.252 37.2402 121.805 38.6323C119.164 39.6464 116.652 40.9692 114.32 42.573C113.667 43.0452 113.027 43.544 112.372 44.0818C109.319 46.3015 106.596 48.944 104.284 51.93C103.115 53.4374 102.247 55.156 101.728 56.9917C101.22 59.0457 100.884 61.1385 100.725 63.2482C100.568 64.7355 100.28 66.22 100.058 67.7059C100.019 67.7948 99.9859 67.8862 99.9597 67.9796C100.147 67.794 100.31 67.5856 100.446 67.3594C101.652 65.2769 102.839 63.1874 104.097 61.1453C105.117 59.4594 106.228 57.8279 107.308 56.163C107.389 56.0408 107.482 55.9263 107.584 55.8208L107.825 55.5763C104.69 61.8866 100.974 67.7908 98.0481 74.1317L97.8919 74.0759ZM80.7149 129.675L80.666 129.812C76.9229 130.922 73.0015 131.483 69.0785 132.419C70.2989 132.701 71.3966 132.894 72.4398 133.179C74.2069 133.656 75.9389 134.23 77.706 134.707C81.0233 135.695 84.5091 135.987 87.9455 135.565C92.6242 134.859 97.1375 133.312 101.268 130.998C102.888 130.1 104.533 129.254 106.179 128.343C108.635 127.016 111.056 125.786 113.478 124.491C115.498 123.34 117.653 122.443 119.892 121.821L120.638 121.581C120.41 121.49 120.166 121.44 119.92 121.434C118.197 121.326 116.466 121.303 114.752 121.109C110.219 120.548 105.687 119.922 101.142 119.334C98.2259 118.893 95.2699 118.776 92.3277 118.985C89.1055 119.331 86.0282 120.512 83.3985 122.41C81.4671 123.848 79.6201 125.397 77.8665 127.048C76.0298 128.676 73.9269 129.976 71.6501 130.89C71.1939 131.058 70.7377 131.226 70.2941 131.42L70.2591 131.518C73.8973 130.907 77.45 130.309 80.9171 129.725L80.7149 129.675ZM97.1504 68.0784C97.2342 67.8438 97.311 67.6287 97.3949 67.394C98.2542 64.6804 99.094 61.9598 99.9925 59.2601C100.891 56.5605 101.879 53.9809 102.704 51.2994C103.235 49.6209 103.552 47.8826 103.65 46.1252C103.93 42.2543 103.905 38.3676 103.576 34.5011C103.4 32.2568 103.539 29.9984 103.991 27.7924C104.688 24.1475 105.944 20.632 107.714 17.3707C107.805 17.1165 107.896 16.8624 107.994 16.5886L108.111 16.6305C107.138 17.6279 106.133 18.5918 105.173 19.6158C102.917 21.9151 100.798 24.3463 98.8291 26.8964C96.1042 30.5038 94.0473 34.5707 92.756 38.9038C90.7108 46.2959 91.0679 54.1456 93.7757 61.3166C94.8684 63.9525 95.7049 66.688 96.2736 69.4849L96.4311 69.7837C96.4662 69.3773 96.5054 69.0827 96.5181 68.8006C96.4966 67.3818 96.5475 65.9448 96.4604 64.5246C96.2836 61.507 96.0217 58.481 95.7988 55.4689L95.7103 54.1144L95.847 54.1632C96.702 58.7674 97.1924 63.4324 97.3136 68.1147L97.1504 68.0784ZM56.6022 158.036L56.8365 158.119C58.7199 158.345 60.5689 158.798 62.3429 159.469C64.4474 160.111 66.5449 160.772 68.6844 161.316C73.2658 162.561 78.0813 162.678 82.7196 161.656C86.1647 160.853 89.5224 159.711 92.7438 158.248C96.1541 156.629 99.7791 155.511 103.507 154.927L103.772 154.801L103.723 154.938C102.615 154.652 101.492 154.406 100.378 154.074C98.2299 153.306 95.9927 152.728 93.8115 151.993C91.414 151.125 88.9655 150.405 86.4798 149.836C83.9752 149.32 81.3884 149.351 78.8957 149.927C77.742 150.198 76.5241 150.403 75.436 150.675C74.1665 150.939 72.8649 151.009 71.5748 150.883C69.8512 150.717 68.1114 150.894 66.4557 151.403C64.7999 151.913 63.2609 152.745 61.9275 153.853C60.6254 154.909 59.2203 155.884 57.8751 156.815C57.745 156.935 57.609 157.048 57.4676 157.154C58.275 157.127 59.0802 157.054 59.8794 156.936C62.3936 156.649 64.9267 156.566 67.4539 156.687C67.8026 156.647 68.1546 156.726 68.4525 156.912C64.5325 156.987 60.6244 157.375 56.7655 158.072L56.6022 158.036ZM47.1547 147.936C47.2102 147.703 47.2504 147.467 47.2751 147.229C47.3879 145.065 47.5228 143.084 47.5421 140.997C47.6209 136.681 46.8311 132.395 45.2197 128.393C44.5124 126.413 43.5573 124.531 42.3773 122.792C41.205 121.204 39.9323 119.713 38.6136 118.228C36.4773 115.882 34.477 113.415 32.6225 110.84C31.9728 109.979 31.4273 109.044 30.9976 108.055C30.4641 106.651 30.1288 105.187 29.6944 103.753C29.6401 103.535 29.5928 103.297 29.519 103.073L29.4019 103.031C29.3276 103.732 29.2463 104.452 29.1915 105.16C28.7825 109.853 28.9658 114.578 29.7373 119.224C30.1284 122.472 31.281 125.581 33.1009 128.297C33.3669 128.686 33.595 129.1 33.7824 129.533C34.5197 130.981 35.0342 132.532 35.3086 134.135C35.7911 136.579 36.9537 138.836 38.6625 140.647C39.7638 141.878 40.9725 142.993 42.1812 144.108C43.9403 145.723 45.5094 147.534 46.8581 149.506C46.8581 149.506 46.8581 149.506 47.0143 149.561C46.4944 147.705 45.814 145.898 44.9808 144.161C44.1923 142.424 43.3967 140.706 42.5482 139.014C41.6997 137.322 40.7716 135.667 39.9286 134.021L40.0876 133.946C41.5392 136.117 42.8311 138.392 43.9533 140.751C45.1488 143.074 46.1713 145.512 47.3179 147.972L47.1547 147.936ZM96.5216 74.9534C99.0333 70.4718 100.339 65.4147 100.311 60.278C98.5202 65.0199 97.3028 69.9589 96.6849 74.9896L96.5216 74.9534Z" fill="#2F4433"/>
<g clip-path="url(#clip1_47_15479)">
<path d="M31.2073 184.089L31.2452 184.11L31.303 184.19L31.2073 184.089Z" fill="#FFCC66"/>
<path d="M37.4714 187.611L37.5091 187.631C37.5091 187.631 37.5039 187.653 37.4714 187.611Z" fill="#FFCC66"/>
<path d="M16.0845 175.489C16.0396 175.52 15.9952 175.553 15.9514 175.59C15.9948 175.552 16.0394 175.518 16.0845 175.489Z" fill="#FFCC66"/>
<path d="M40.3387 171.555C40.3211 171.546 40.4261 171.641 40.4694 171.675C40.2988 171.62 40.1426 171.535 40.0037 171.422C40.1251 171.445 40.2375 171.49 40.3387 171.555Z" fill="#FFCC66"/>
<path d="M57.953 181.703L57.9424 181.632C57.9638 181.671 57.9646 181.687 57.953 181.703Z" fill="#FFCC66"/>
<path d="M43.2433 190.899C43.2433 190.899 43.2745 190.877 43.2966 190.873L43.3144 190.883L43.2433 190.899Z" fill="#FFCC66"/>
<path d="M60.1266 192.465C60.1703 192.383 60.2248 192.307 60.2862 192.244C60.1407 192.506 60.1213 192.511 60.1266 192.465Z" fill="#FFCC66"/>
</g>
<path d="M65.3886 185.566C65.3027 185.807 65.2294 186.012 65.13 186.052C65.0727 186.238 65.0213 186.424 64.9763 186.611C64.9601 186.712 64.9323 186.812 64.8944 186.909C64.9084 186.819 64.9565 186.65 64.9349 186.642C64.8899 186.888 64.879 186.748 64.9107 186.633C64.7693 186.986 64.6486 187.347 64.5502 187.713L64.3616 188.31C64.3059 188.466 64.2677 188.573 64.2424 188.584L64.2613 188.591C64.1555 188.649 64.1196 188.485 63.9954 188.723L63.9823 188.904L63.877 189.148C63.8624 189.334 63.9115 189.256 63.9223 189.26L63.8841 189.367L63.8332 189.51C63.8061 189.612 63.7827 189.715 63.7632 189.817C63.7365 189.937 63.7142 190.057 63.6961 190.176C63.6774 190.305 63.237 190.244 63.3485 190.238C63.1785 190.178 62.9563 190.144 62.7147 190.088L62.3296 189.991L61.9244 189.881L61.5614 189.782L61.3104 189.693C61.2098 189.67 61.1159 189.626 61.0312 189.563L60.5731 189.525C59.0881 189.263 59.6217 189.106 59.0376 188.978L58.2854 188.861C58.2854 188.861 55.7842 188.044 55.4258 187.906C55.0674 187.769 53.8289 187.267 53.8289 187.267L52.9641 187.039C52.9641 187.039 51.7371 186.863 49.5312 186.157L49.736 186.18C49.43 186.003 49.0997 185.885 48.751 185.828C48.0952 185.595 47.4286 185.357 46.8187 185.139C46.2089 184.922 45.6424 184.77 45.2017 184.658L45.0537 184.485C44.7838 184.389 44.3135 184.377 44.2279 184.19L43.6576 183.922C43.2798 183.787 43.07 183.642 42.6239 183.528L42.5429 183.499C41.6875 183.194 42.5716 183.419 41.5905 183.099C41.2584 183.041 41.287 182.85 40.8061 182.689L40.2887 182.63C39.4065 182.366 39.3026 182.188 38.0589 181.709C37.4476 181.521 37.1275 181.498 37.4934 181.734C37.1999 181.535 36.8905 181.371 36.5675 181.243C36.4441 181.239 36.5192 181.276 36.6625 181.377C36.4889 181.335 36.3213 181.276 36.1605 181.198C36.0444 181.123 35.921 181.064 35.7917 181.021C35.68 180.866 35.5473 180.744 35.3975 180.659L35.5864 180.727C35.0885 180.494 34.5324 180.27 33.9254 180.079L33.9369 180.124L33.3069 179.869L33.2521 179.894L32.3522 179.543L32.4764 179.588C32.2632 179.512 31.5684 179.234 31.1594 179.118L31.1729 179.123C30.5966 178.948 30.0935 178.738 29.5537 178.546C29.014 178.353 28.4616 178.111 27.7993 177.87L27.9588 177.977C27.4911 177.855 27.8586 177.866 27.3109 177.695L27.2664 177.735C26.9648 177.59 26.6445 177.495 26.3098 177.449L26.4848 177.436L25.8695 177.217C25.7245 177.145 25.565 177.112 25.3965 177.119C25.387 177.145 25.4627 177.198 25.5076 177.234L25.062 177.024L24.948 177.054C24.6345 176.867 24.6027 176.956 24.0196 176.723C23.9615 176.733 24.1094 176.796 23.9007 176.741L22.9713 176.319L23.5517 176.551L23.5122 176.432C23.2873 176.327 23.0539 176.243 22.8133 176.182C22.6298 176.117 22.4508 176.098 22.2354 176.012L22.5297 176.142C22.1708 176.014 21.99 175.949 21.8223 175.925L21.7684 175.905L21.6874 175.877L21.5093 175.813L21.0567 175.692C21.2983 175.748 21.6203 175.817 21.1577 175.647C20.8096 175.523 20.9297 175.621 20.5655 175.517C20.4654 175.422 20.3493 175.359 20.2219 175.329C20.006 175.252 19.7226 175.151 19.4123 175.04C19.4844 174.952 19.5534 174.861 19.6193 174.767C19.5877 174.776 19.5557 174.794 19.5248 174.819C19.6501 174.716 19.7694 174.588 19.8783 174.441L19.6333 174.565L19.8795 174.361L20.0682 174.207C20.1553 174.092 20.2464 173.985 20.3407 173.887L20.4323 173.783C20.4323 173.783 20.4434 173.752 20.4418 173.757L20.3962 173.791L20.3689 173.816L20.34 173.846L20.3823 173.796L20.4139 173.767L20.476 173.703L20.5949 173.575C20.6704 173.493 20.7439 173.407 20.8149 173.316C20.9476 173.149 21.0723 172.967 21.1875 172.774V172.774C21.3025 172.592 21.4054 172.395 21.4935 172.189C21.5724 172.026 21.6344 171.852 21.6766 171.676C21.709 171.491 21.7055 171.339 21.6951 171.41C21.6889 171.187 21.6625 170.975 21.6163 170.778C21.5807 170.58 21.5463 170.386 21.5199 170.196C21.5018 170.014 21.5053 169.82 21.5303 169.62C21.5455 169.516 21.5677 169.411 21.5965 169.307C21.6331 169.204 21.6729 169.093 21.7159 168.972C21.7158 168.919 21.7232 168.864 21.7377 168.809C21.7545 168.74 21.7787 168.672 21.8093 168.608C21.8416 168.531 21.8784 168.456 21.9191 168.385C21.9647 168.303 22.014 168.225 22.0665 168.151C22.3078 167.828 22.559 167.522 22.8184 167.236C23.2055 166.859 23.546 166.361 23.8035 165.796C24.0198 165.258 24.172 164.695 24.2513 164.139C24.2863 163.744 24.2923 163.358 24.2694 162.988L24.2652 162.906L24.2617 162.864L24.2713 162.838L24.2834 162.59L24.3104 162.097L24.3133 162.037L24.3228 162.011C24.3247 162.001 24.328 161.992 24.3324 161.984L24.3738 161.868L24.4534 161.644C24.5059 161.497 24.5407 161.348 24.5856 161.188C24.7904 161.211 24.9914 161.227 25.1763 161.238L25.4732 161.258C25.5299 161.26 25.585 161.267 25.6382 161.282L25.8109 161.343C26.0484 161.428 26.275 161.509 26.4825 161.618L26.7957 161.669L26.874 161.697L26.9415 161.721L27.0332 161.754C27.1653 161.776 27.3044 161.795 27.4457 161.826C27.587 161.856 27.7299 161.882 27.8831 161.921L28.34 162.039C28.9577 162.209 29.6149 162.413 30.2775 162.508C30.5681 162.657 30.7226 162.727 30.7965 162.759C30.7399 162.739 30.6424 162.739 30.5878 162.815C30.776 162.842 31.0431 162.937 31.2638 163.001C31.4845 163.064 31.6613 163.097 31.6657 163.008L31.5767 162.977C31.5816 162.792 32.6322 163.428 33.075 163.415L32.7911 163.52L33.4758 163.724L33.3061 163.628C33.6545 163.803 33.9834 163.955 34.2939 164.091C34.6044 164.227 34.9019 164.348 35.189 164.456C35.7638 164.661 36.2874 164.847 36.8209 164.997C37.9853 165.33 39.1109 165.777 40.1917 166.335C39.9002 166.01 40.6916 166.639 40.8016 166.442C41.1573 166.45 41.4894 166.551 41.7836 166.742C42.0662 166.913 42.32 167.114 42.5863 167.254C42.5863 167.254 42.5784 167.277 42.6141 167.305L43.6018 167.657C43.1031 167.187 44.2362 168.13 43.7718 167.717C44.4295 167.912 45.1386 168.149 45.8495 168.408C46.5603 168.666 47.3283 168.935 48.0852 169.235L50.3976 170.095L52.686 170.911L52.5358 170.923C52.7247 170.99 52.9244 171.061 53.1268 171.134L53.7298 171.379C54.1292 171.521 54.4986 171.688 54.8093 171.764C55.1057 171.854 55.3877 171.984 55.6523 172.155C55.9014 172.309 56.1047 172.447 56.2149 172.496C56.4674 172.638 56.735 172.744 57.0149 172.812C57.1634 172.865 57.2559 172.852 57.2186 172.829C57.5248 172.968 57.8177 173.128 58.1407 173.289C58.5276 173.484 58.9286 173.643 59.3418 173.767C59.8222 173.889 60.2881 174.055 60.737 174.265C61.3388 174.479 61.8933 174.707 61.937 174.627C62.5653 174.751 63.155 174.931 63.7583 175.116L64.2036 175.274L64.6681 175.405C64.8219 175.46 64.9884 175.479 65.1545 175.508C65.3213 175.545 65.4932 175.564 65.6693 175.565C65.6491 175.552 65.6263 175.543 65.6018 175.541C66.0263 175.733 66.4762 175.853 66.89 176.066C67.1038 176.162 67.308 176.282 67.5012 176.425L67.6451 176.542L67.7815 176.671C67.873 176.768 67.959 176.874 68.0391 176.989C67.9488 177.123 67.8644 177.249 67.7804 177.365L67.8911 177.404L67.1841 178.159C66.3586 179.032 66.2642 180.201 66.523 181.446C66.4937 181.807 66.4345 182.177 66.3469 182.546C66.3271 182.737 66.2643 182.934 66.1684 183.106C66.0693 183.299 65.987 183.503 65.9244 183.714C65.6856 184.383 65.9048 184.084 65.8367 184.437C65.7113 184.866 65.786 184.323 65.712 184.488C65.6801 184.663 65.6481 184.838 65.6092 185.015C65.737 184.734 65.7137 184.902 65.7188 184.964C65.5533 185.036 65.4719 185.324 65.3886 185.566Z" fill="#DFC384"/>
</g>
<defs>
<clipPath id="clip0_47_15479">
<rect width="94.6677" height="194.904" fill="white" transform="translate(65.5717) rotate(19.6596)"/>
</clipPath>
<clipPath id="clip1_47_15479">
<rect width="46.9067" height="16.0314" fill="white" transform="translate(23.3743 161.928) rotate(28.5162)"/>
</clipPath>
</defs>
</svg>
