<svg width="120" height="98" viewBox="0 0 120 98" fill="none" xmlns="http://www.w3.org/2000/svg">
<path d="M105.384 11.4124C104.948 10.8395 104.578 10.3515 104.293 10.3045C103.981 9.8591 103.682 9.40707 103.398 8.95024C103.265 8.70139 103.104 8.45726 102.92 8.2287C103.039 8.45427 103.313 8.86278 103.267 8.8948C102.929 8.28714 103.03 8.65359 103.214 8.93081C102.539 8.10199 101.907 7.23858 101.327 6.35283L100.309 4.92051C100.027 4.54923 99.8339 4.29463 99.7609 4.28021L99.8017 4.25219C99.4853 4.1627 99.5464 4.605 99.0193 4.06296L98.8202 3.60243L98.3338 3.03239C98.1267 2.56123 98.3206 2.73478 98.3439 2.71878L98.1505 2.46418L97.8926 2.12472C97.7313 1.87659 97.5791 1.62546 97.4364 1.37254C97.2603 1.07901 97.0947 0.783145 96.9405 0.486267C96.7754 0.163823 95.7361 0.570597 96.0185 0.521995C95.6513 0.774131 95.1298 0.986824 94.5801 1.26736L93.7111 1.73479L92.8036 2.24483L91.9916 2.70547L91.4494 3.07766C91.2203 3.19374 91.0269 3.35903 90.874 3.56955L89.7689 3.92469C86.3161 5.43957 87.7876 5.54318 86.4519 6.20189L84.6885 6.92823C84.6885 6.92823 79.216 10.4431 78.451 11.0006C77.6859 11.5581 75.066 13.5504 75.066 13.5504L73.124 14.6253C73.124 14.6253 70.2331 15.7706 65.3938 18.8346L65.8825 18.6605C65.2834 19.2882 64.5698 19.778 63.7547 20.1213C62.3381 21.0938 60.8981 22.0824 59.5806 22.9869C58.2631 23.8914 56.9933 24.6017 55.9997 25.1386L55.7908 25.6693C55.2079 26.0696 54.0486 26.365 54.007 26.894L52.835 27.9084C52.0189 28.4687 51.6304 28.9614 50.6251 29.5062L50.4502 29.6263C48.6022 30.895 50.5953 29.8172 48.4483 31.1944C47.6753 31.5313 47.9219 32.0077 46.8739 32.6949L45.6406 33.138C43.6887 34.3166 43.5937 34.8338 40.9393 36.769C39.591 37.5979 38.8163 37.8391 39.5099 37.024C38.9621 37.702 38.3432 38.2994 37.6574 38.8123C37.3539 38.8915 37.5069 38.7542 37.7702 38.412C37.3768 38.6173 37.0146 38.866 36.6859 39.1564C36.4661 39.4161 36.2136 39.6381 35.9306 39.8202C35.7955 40.2832 35.5771 40.6723 35.2825 40.9753L35.6906 40.6952C34.6658 41.5763 33.4877 42.4658 32.1532 43.3012L32.1412 43.1803L30.808 44.1925L30.648 44.1571L28.7317 45.5694L28.9999 45.3853C28.5394 45.7015 27.0662 46.8097 26.155 47.3384L26.1842 47.3184C24.9116 48.0952 23.8523 48.9192 22.6864 49.7197C21.5205 50.5201 20.3688 51.456 18.9427 52.4512L19.2411 52.0849C18.1892 52.6618 19.0938 52.4282 17.8876 53.1755L17.7406 53.0989C17.1231 53.6415 16.4141 54.0688 15.6232 54.3749L16.0706 54.3099L14.7414 55.2224C14.4465 55.4887 14.0801 55.6641 13.6551 55.7423C13.6067 55.6786 13.7471 55.5015 13.8256 55.383L12.9094 56.1735L12.5983 56.1611C11.9905 56.8204 11.8293 56.6083 10.5929 57.5378C10.4396 57.5462 10.75 57.3008 10.2805 57.5586L8.35604 59.1703L9.58661 58.2448L9.59848 58.5756C9.13517 58.9729 8.63104 59.319 8.08859 59.6122C7.69217 59.8843 7.26404 60.033 6.80796 60.3783L7.42058 59.8771C6.64523 60.4093 6.25463 60.6775 5.8601 60.8354L5.7435 60.9154L5.56861 61.0355L5.18384 61.2996L4.16916 61.8671C4.71887 61.5866 5.45597 61.2258 4.46133 61.9248C3.7093 62.4411 3.91797 62.1202 3.10816 62.5955C2.94578 62.8953 2.71531 63.1245 2.42591 63.2737C1.95954 63.5939 1.34742 64.0141 0.677014 64.4743C0.937427 64.6614 1.19278 64.8574 1.44302 65.0622C1.35564 65.0556 1.25988 65.0284 1.16027 64.9819C1.5664 65.1763 1.98009 65.4372 2.38594 65.7546L1.6627 65.5732L2.46241 65.9604L3.07354 66.251C3.3954 66.4978 3.72042 66.7226 4.04564 66.9234L4.36818 67.1378C4.36818 67.1378 4.4246 67.212 4.41654 67.2014L4.27183 67.1394L4.18043 67.0891L4.08098 67.0283L4.2324 67.1342L4.33765 67.191L4.55046 67.3193L4.96442 67.584C5.22683 67.7508 5.48887 67.932 5.74925 68.1266C6.23274 68.4828 6.70964 68.8799 7.17317 69.312C7.62727 69.7182 8.06362 70.167 8.47195 70.6479C8.81807 71.0241 9.13188 71.4372 9.3988 71.8678C9.649 72.3256 9.78002 72.7199 9.68827 72.5407C9.8782 73.1204 10.0072 73.6824 10.0725 74.2139C10.1666 74.7465 10.2586 75.2645 10.368 75.7704C10.4892 76.248 10.6761 76.7461 10.9218 77.2465C11.0552 77.5064 11.2068 77.7646 11.3743 78.0173C11.5597 78.2613 11.7612 78.5265 11.9788 78.8129C12.0267 78.9484 12.096 79.0873 12.1829 79.2216C12.288 79.3898 12.4106 79.5513 12.5455 79.699C12.6968 79.8796 12.8567 80.051 13.0229 80.2106C13.2119 80.3965 13.4066 80.5707 13.6047 80.7312C14.5019 81.4279 15.4072 82.0735 16.3149 82.6639C17.6242 83.4178 18.9284 84.5089 20.0877 85.8201C21.12 87.0846 22.0153 88.4496 22.7232 89.8378C23.1728 90.8361 23.542 91.8269 23.8249 92.7939L23.8898 93.0077L23.9193 93.1165L23.9676 93.1802L24.2249 93.8107L24.7451 95.0676L24.8069 95.2189L24.8552 95.2826C24.8684 95.3054 24.885 95.3272 24.9036 95.3462L25.1131 95.622L25.5161 96.1524C25.7821 96.5025 26.005 96.866 26.2638 97.2533C26.7525 97.0792 27.2375 96.9238 27.6876 96.7923L28.4076 96.5724C28.5474 96.537 28.6774 96.4855 28.7963 96.4186L29.1694 96.1624C29.6824 95.8102 30.1721 95.4741 30.5879 95.0756L31.3201 94.7667L31.4891 94.6506L31.6348 94.5506L31.8331 94.4145C32.1415 94.2834 32.4697 94.155 32.7934 93.9973C33.1172 93.8396 33.4489 93.6926 33.7937 93.5043L34.8223 92.9434C36.203 92.157 37.6504 91.2601 39.2111 90.6407C39.7973 90.093 40.1171 89.825 40.2722 89.7023C40.1498 89.7864 39.9069 89.8402 39.7013 89.6747C40.1447 89.4994 40.7218 89.1032 41.2123 88.8148C41.7029 88.5265 42.1127 88.342 42.2053 88.569L42.0129 88.701C42.1945 89.1736 44.2239 86.9411 45.3374 86.7254L44.5347 86.6147L46.0508 85.703L45.7166 86.0454C46.423 85.399 47.1011 84.8205 47.7487 84.2952C48.3964 83.7699 49.0251 83.2898 49.6408 82.851C50.8825 81.9985 52.0135 81.2221 53.2031 80.5346C55.7937 79.0195 58.1837 77.2332 60.36 75.1854C59.9334 76.1885 61.3244 74.1198 61.779 74.5664C62.6565 74.3448 63.3895 73.8962 63.9466 73.2397C64.4925 72.6389 64.939 71.9773 65.4727 71.4656C65.4727 71.4656 65.4324 71.4126 65.4957 71.3207L67.6293 69.8559C66.8201 71.3477 68.7735 68.2796 67.9966 69.6038C69.4544 68.7321 71.0001 67.7194 72.5311 66.6522C74.062 65.585 75.7257 64.459 77.333 63.2588L82.2959 59.7387L87.2394 56.3449L86.8549 56.399C87.2629 56.1189 87.6943 55.8227 88.1315 55.5226L89.4065 54.5504C90.2693 53.9581 91.0349 53.3195 91.7384 52.9496C92.3933 52.5508 92.9747 52.0545 93.4763 51.4659C93.9545 50.9278 94.3336 50.4577 94.5623 50.2684C95.0603 49.7603 95.6291 49.3374 96.2628 49.0041C96.5835 48.784 96.8251 48.7634 96.7537 48.8447C97.3874 48.3128 97.9692 47.7358 98.6254 47.1401C99.409 46.4196 100.26 45.7817 101.174 45.229C102.257 44.6445 103.264 43.9537 104.188 43.1599C105.488 42.2674 106.658 41.3673 106.84 41.5489C108.29 40.8766 109.591 40.0798 110.922 39.2629L111.884 38.6026L112.92 38.0045C113.252 37.7763 113.649 37.6331 114.036 37.4646C114.416 37.2753 114.827 37.1286 115.263 37.0255C115.226 37.0727 115.176 37.1064 115.117 37.1255C115.997 36.3923 117.006 35.8288 117.84 35.0465C118.284 34.6789 118.682 34.2548 119.031 33.777L119.282 33.395L119.503 32.9851C119.641 32.6836 119.758 32.3612 119.851 32.0195C119.504 31.7254 119.178 31.4486 118.863 31.197L119.102 31.0329L116.65 29.4876C113.795 27.7028 112.487 24.7432 111.988 21.3894C111.583 20.4743 111.097 19.5563 110.54 18.6548C110.315 18.1727 109.978 17.7004 109.581 17.3113C109.158 16.8711 108.765 16.3896 108.417 15.8834C107.208 14.2922 108.028 14.9397 107.534 14.0681C106.829 13.0349 107.512 14.3897 107.177 14.0066C106.937 13.574 106.697 13.1415 106.438 12.7064C107.014 13.3599 106.802 12.9406 106.758 12.7773C106.28 12.6856 105.813 11.9892 105.384 11.4124Z" fill="#78A780"/>
</svg>
