<svg width="31" height="30" viewBox="0 0 31 30" fill="none" xmlns="http://www.w3.org/2000/svg">
<path d="M9 24C7.35 24 6.015 25.35 6.015 27C6.015 28.65 7.35 30 9 30C10.65 30 12 28.65 12 27C12 25.35 10.65 24 9 24ZM0 1.5C0 2.325 0.675 3 1.5 3H3L8.4 14.385L6.375 18.045C5.28 20.055 6.72 22.5 9 22.5H25.5C26.325 22.5 27 21.825 27 21C27 20.175 26.325 19.5 25.5 19.5H9L10.65 16.5H21.825C22.95 16.5 23.94 15.885 24.45 14.955L29.82 5.22C30.375 4.23 29.655 3 28.515 3H6.315L5.31 0.855C5.07 0.33 4.53 0 3.96 0H1.5C0.675 0 0 0.675 0 1.5ZM24 24C22.35 24 21.015 25.35 21.015 27C21.015 28.65 22.35 30 24 30C25.65 30 27 28.65 27 27C27 25.35 25.65 24 24 24Z"/>
</svg>
