<svg width="110" height="150" viewBox="0 0 110 150" fill="none" xmlns="http://www.w3.org/2000/svg">
<path d="M58 3C49.163 3 42 10.163 42 19C42 31 58 45 58 45C58 45 74 31 74 19C74 10.163 66.837 3 58 3Z" fill="#749279"/>
<path d="M58 8C55.0826 8 52.2847 9.15893 50.2218 11.2218C48.1589 13.2847 47 16.0826 47 19C47 21.9174 48.1589 24.7153 50.2218 26.7782C52.2847 28.8411 55.0826 30 58 30C60.9174 30 63.7153 28.8411 65.7782 26.7782C67.8411 24.7153 69 21.9174 69 19C69 16.0826 67.8411 13.2847 65.7782 11.2218C63.7153 9.15893 60.9174 8 58 8Z" fill="#F5F5F5"/>
<path d="M63 16.286V13H61V14.571L58 12L51 18H52V25H56V20H60V25H64V18H65L63 16.286Z" fill="#749279"/>
<path d="M100.833 122.5H68.75V76.6666C68.75 74.1458 70.8125 72.0833 73.3333 72.0833H91.6667C93.0417 72.0833 94.4167 72.7708 95.3333 73.9166L109.083 91.5625C109.771 92.4791 110 93.3958 110 94.3125V113.333C110 118.375 105.875 122.5 100.833 122.5Z" fill="#FFC107"/>
<path d="M18.3332 122.5H68.7498V69.7917C68.7498 64.75 64.6248 60.625 59.5832 60.625H9.1665V113.333C9.1665 118.375 13.2915 122.5 18.3332 122.5Z" fill="#388E3C"/>
<path d="M0 60.625H22.9167V65.2083H0V60.625ZM0 72.0833H22.9167V76.6667H0V72.0833ZM0 83.5417H22.9167V88.125H0V83.5417ZM0 95H22.9167V99.5833H0V95Z" fill="#388E3C"/>
<path d="M9.1665 65.2083H45.8332V69.7916H9.1665V65.2083ZM9.1665 76.6666H36.6665V81.25H9.1665V76.6666ZM9.1665 88.125H27.4998V92.7083H9.1665V88.125ZM9.1665 99.5833H18.3332V104.167H9.1665V99.5833Z" fill="#DCEDC8"/>
<path d="M89.3752 111.042C83.0479 111.042 77.9168 116.173 77.9168 122.5C77.9168 128.827 83.0479 133.958 89.3752 133.958C95.7025 133.958 100.833 128.827 100.833 122.5C100.833 116.173 95.7025 111.042 89.3752 111.042ZM36.6668 111.042C30.3395 111.042 25.2085 116.173 25.2085 122.5C25.2085 128.827 30.3395 133.958 36.6668 133.958C42.9941 133.958 48.1252 128.827 48.1252 122.5C48.1252 116.173 42.9941 111.042 36.6668 111.042Z" fill="#37474F"/>
<path d="M89.375 116.771C86.2102 116.771 83.6458 119.335 83.6458 122.5C83.6458 125.665 86.2102 128.229 89.375 128.229C92.5398 128.229 95.1042 125.665 95.1042 122.5C95.1042 119.335 92.5398 116.771 89.375 116.771ZM36.6667 116.771C33.5019 116.771 30.9375 119.335 30.9375 122.5C30.9375 125.665 33.5019 128.229 36.6667 128.229C39.8315 128.229 42.3958 125.665 42.3958 122.5C42.3958 119.335 39.8315 116.771 36.6667 116.771Z" fill="#78909C"/>
<path d="M100.833 99.5834H92.5833C91.8958 99.5834 91.4375 99.3542 90.9792 98.8959L87.7708 95.6875C87.3125 95.2292 86.8542 95 86.1667 95H77.9167C76.5417 95 75.625 94.0834 75.625 92.7084V78.9584C75.625 77.5834 76.5417 76.6667 77.9167 76.6667H90.5208C91.2083 76.6667 91.8958 76.8959 92.3542 77.5834L102.667 89.9584C102.896 90.4167 103.125 90.875 103.125 91.3334V97.2917C103.125 98.6667 102.208 99.5834 100.833 99.5834Z" fill="#455A64"/>
</svg>
