<svg width="20" height="18" viewBox="0 0 20 18" fill="none" xmlns="http://www.w3.org/2000/svg">
<path d="M5.6 10.34L8.43 7.50999L2.24 1.32999C1.76 0.849988 0.930002 0.979988 0.630002 1.59999C-0.0799976 3.08999 0.180002 4.91999 1.41 6.15999L5.6 10.34ZM12.38 8.52999C13.91 9.23999 16.06 8.73999 17.65 7.14999C19.56 5.23999 19.93 2.49999 18.46 1.02999C17 -0.430012 14.26 -0.070012 12.34 1.83999C10.75 3.42999 10.25 5.57999 10.96 7.10999L1.9 16.17C1.51 16.56 1.51 17.19 1.9 17.58C2.29 17.97 2.92 17.97 3.31 17.58L9.5 11.41L15.68 17.59C16.07 17.98 16.7 17.98 17.09 17.59C17.48 17.2 17.48 16.57 17.09 16.18L10.91 9.99999L12.38 8.52999Z" fill="white"/>
</svg>
