<svg width="21" height="21" viewBox="0 0 21 21" fill="none" xmlns="http://www.w3.org/2000/svg">
<path d="M4.69999 5.41C4.46999 5.27 4.38999 4.96 4.52999 4.73L5.69999 2.78L6.72999 1.07C7.11999 0.42 8.05999 0.42 8.44999 1.07L9.92999 3.53L8.69999 5.59L7.97999 6.79C7.81999 7.02 7.50999 7.1 7.26999 6.96L4.69999 5.41ZM20.22 10.97L18.88 8.73C18.74 8.5 18.44 8.42 18.2 8.55L15.6 10.05C15.36 10.19 15.28 10.5 15.42 10.74L17.37 14H18.46C19.07 14 19.66 13.74 20.05 13.27C20.35 12.9 20.5 12.45 20.5 12C20.5 11.64 20.4 11.29 20.22 10.97ZM14.5 19H16C16.76 19 17.45 18.57 17.79 17.89L19.24 15H14.5V14.21C14.5 13.76 13.96 13.54 13.65 13.86L10.86 16.65C10.66 16.85 10.66 17.16 10.86 17.36L13.65 20.15C13.96 20.46 14.5 20.24 14.5 19.8V19ZM7.99999 15H4.19999L3.35999 16.41C3.05999 16.91 3.03999 17.53 3.29999 18.06C3.57999 18.63 4.16999 19 4.81999 19H7.99999C8.27999 19 8.49999 18.78 8.49999 18.5V15.5C8.49999 15.22 8.27999 15 7.99999 15ZM4.61999 12.35L5.31999 12.77C5.69999 13 6.16999 12.65 6.05999 12.22L5.09999 8.38C5.03999 8.12 4.76999 7.95 4.49999 8.02L0.669988 8.98C0.239988 9.09 0.149988 9.66 0.529988 9.89L1.18999 10.29L0.779988 10.98C0.429988 11.57 0.399988 12.29 0.709988 12.9L2.33999 16.16L4.61999 12.35ZM15.52 3.14L14.22 0.97C13.85 0.37 13.2 0 12.5 0H8.96999L12.09 5.2L11.4 5.61C11.02 5.84 11.1 6.42 11.54 6.52L15.37 7.48C15.64 7.55 15.91 7.38 15.98 7.12L16.94 3.29C17.05 2.86 16.58 2.51 16.2 2.74L15.52 3.14Z" fill="white"/>
</svg>
