<svg width="21" height="20" viewBox="0 0 21 20" fill="none" xmlns="http://www.w3.org/2000/svg">
<path d="M10.5 0C4.98 0 0.5 4.48 0.5 10C0.5 15.52 4.98 20 10.5 20C16.02 20 20.5 15.52 20.5 10C20.5 4.48 16.02 0 10.5 0ZM11.38 15.76V16.12C11.38 16.6 10.99 17 10.5 17C10.02 17 9.62 16.61 9.62 16.12V15.7C8.99 15.55 7.69 15.09 6.93 13.6C6.7 13.16 6.92 12.61 7.38 12.42L7.45 12.39C7.86 12.22 8.32 12.39 8.53 12.78C8.85 13.39 9.48 14.15 10.65 14.15C11.58 14.15 12.63 13.67 12.63 12.54C12.63 11.58 11.93 11.08 10.35 10.51C9.25 10.12 7 9.48 7 7.2C7 7.1 7.01 4.8 9.62 4.24V3.88C9.62 3.39 10.02 3 10.5 3C10.98 3 11.38 3.39 11.38 3.88V4.25C12.45 4.44 13.13 5.01 13.54 5.55C13.88 5.99 13.7 6.63 13.18 6.85C12.82 7 12.4 6.88 12.16 6.57C11.88 6.19 11.38 5.8 10.56 5.8C9.86 5.8 8.75 6.17 8.75 7.19C8.75 8.14 9.61 8.5 11.39 9.09C13.79 9.92 14.4 11.14 14.4 12.54C14.4 15.17 11.9 15.67 11.38 15.76Z" fill="white"/>
</svg>
