<svg width="16" height="16" viewBox="0 0 16 16" fill="none" xmlns="http://www.w3.org/2000/svg">
<path d="M3.54167 12.2292H12.4792C12.6181 12.2292 12.7153 12.1736 12.7708 12.0625C12.8264 11.9514 12.8125 11.8403 12.7292 11.7292L10.2917 8.47917C10.2222 8.39583 10.1389 8.35417 10.0417 8.35417C9.94444 8.35417 9.86111 8.39583 9.79167 8.47917L7.29167 11.7083L5.60417 9.39583C5.53472 9.3125 5.45139 9.27083 5.35417 9.27083C5.25694 9.27083 5.17361 9.3125 5.10417 9.39583L3.3125 11.7292C3.24306 11.8403 3.23264 11.9514 3.28125 12.0625C3.32986 12.1736 3.41667 12.2292 3.54167 12.2292ZM1.75 15.5C1.41667 15.5 1.125 15.375 0.875 15.125C0.625 14.875 0.5 14.5833 0.5 14.25V1.75C0.5 1.41667 0.625 1.125 0.875 0.875C1.125 0.625 1.41667 0.5 1.75 0.5H14.25C14.5833 0.5 14.875 0.625 15.125 0.875C15.375 1.125 15.5 1.41667 15.5 1.75V14.25C15.5 14.5833 15.375 14.875 15.125 15.125C14.875 15.375 14.5833 15.5 14.25 15.5H1.75Z" fill="black"/>
</svg>
