<svg width="106" height="96" viewBox="0 0 106 96" fill="none" xmlns="http://www.w3.org/2000/svg">
<path d="M3 43H98V93H3V43Z" fill="#A5D6A7"/>
<path d="M0 96H101V40H0V96ZM95.95 45.0909V90.9091H5.05V45.0909H95.95Z" fill="#388E3C"/>
<path d="M20.5 63C19.1739 63 17.9021 63.5268 16.9645 64.4645C16.0268 65.4021 15.5 66.6739 15.5 68C15.5 69.3261 16.0268 70.5979 16.9645 71.5355C17.9021 72.4732 19.1739 73 20.5 73C21.8261 73 23.0979 72.4732 24.0355 71.5355C24.9732 70.5979 25.5 69.3261 25.5 68C25.5 66.6739 24.9732 65.4021 24.0355 64.4645C23.0979 63.5268 21.8261 63 20.5 63ZM50.5 50.5C48.2019 50.5 45.9262 50.9526 43.803 51.8321C41.6798 52.7116 39.7507 54.0006 38.1256 55.6256C36.5006 57.2507 35.2116 59.1798 34.3321 61.303C33.4527 63.4262 33 65.7019 33 68C33 70.2981 33.4527 72.5738 34.3321 74.697C35.2116 76.8202 36.5006 78.7493 38.1256 80.3744C39.7507 81.9994 41.6798 83.2884 43.803 84.1679C45.9262 85.0473 48.2019 85.5 50.5 85.5C52.7981 85.5 55.0738 85.0473 57.197 84.1679C59.3202 83.2884 61.2493 81.9994 62.8744 80.3744C64.4994 78.7493 65.7884 76.8202 66.6679 74.697C67.5473 72.5738 68 70.2981 68 68C68 65.7019 67.5473 63.4262 66.6679 61.303C65.7884 59.1798 64.4994 57.2507 62.8744 55.6256C61.2493 54.0006 59.3202 52.7116 57.197 51.8321C55.0738 50.9526 52.7981 50.5 50.5 50.5ZM13.5525 43H3V53.5525C4.33 54.75 6.07 55.5 8 55.5C12.1425 55.5 15.5 52.1425 15.5 48C15.5 46.07 14.75 44.33 13.5525 43ZM13.5525 93C14.75 91.67 15.5 89.93 15.5 88C15.5 83.8575 12.1425 80.5 8 80.5C6.07 80.5 4.33 81.25 3 82.4475V93H13.5525ZM98 93V82.4475C96.67 81.25 94.93 80.5 93 80.5C88.8575 80.5 85.5 83.8575 85.5 88C85.5 89.93 86.25 91.67 87.4475 93H98Z" fill="#388E3C"/>
<path d="M82 20C75.6348 20 69.5303 22.5286 65.0294 27.0294C60.5286 31.5303 58 37.6348 58 44C58 50.3652 60.5286 56.4697 65.0294 60.9706C69.5303 65.4714 75.6348 68 82 68C88.3652 68 94.4697 65.4714 98.9706 60.9706C103.471 56.4697 106 50.3652 106 44C106 37.6348 103.471 31.5303 98.9706 27.0294C94.4697 22.5286 88.3652 20 82 20Z" fill="#FF9800"/>
<path d="M82 26C79.5049 26 77.0342 26.4785 74.729 27.4082C72.4238 28.3379 70.3293 29.7006 68.565 31.4185C66.8007 33.1364 65.4011 35.1758 64.4463 37.4204C63.4914 39.6649 63 42.0705 63 44.5C63 46.9295 63.4914 49.3351 64.4463 51.5796C65.4011 53.8242 66.8007 55.8636 68.565 57.5815C70.3293 59.2994 72.4238 60.6621 74.729 61.5918C77.0342 62.5215 79.5049 63 82 63C84.4951 63 86.9658 62.5215 89.271 61.5918C91.5762 60.6621 93.6707 59.2994 95.435 57.5815C97.1993 55.8636 98.5989 53.8242 99.5537 51.5796C100.509 49.3351 101 46.9295 101 44.5C101 42.0705 100.509 39.6649 99.5537 37.4204C98.5989 35.1758 97.1993 33.1364 95.435 31.4185C93.6707 29.7006 91.5762 28.3379 89.271 27.4082C86.9658 26.4785 84.4951 26 82 26Z" fill="#FFCC80"/>
<path d="M65.5 0C58.2065 0 51.2118 2.94999 46.0546 8.20101C40.8973 13.452 38 20.5739 38 28C38 35.4261 40.8973 42.548 46.0546 47.799C51.2118 53.05 58.2065 56 65.5 56C72.7935 56 79.7882 53.05 84.9454 47.799C90.1027 42.548 93 35.4261 93 28C93 20.5739 90.1027 13.452 84.9454 8.20101C79.7882 2.94999 72.7935 0 65.5 0Z" fill="#FFC107"/>
<path d="M75.4472 67.9736C75.4472 67.6846 75.4857 67.4081 75.5346 67.1317C72.3925 66.3074 69.5049 64.8899 67 63C67.4753 64.5783 67.7399 66.2445 67.7399 67.9736C67.7399 68.4637 67.7065 68.9462 67.6654 69.4262C71.2287 71.3463 75.2391 72.5476 79.4987 72.8819C77.1839 72.3943 75.4472 70.3838 75.4472 67.9736ZM85.7236 67.9736C85.7236 70.6049 83.6478 72.7411 81.0144 72.9573C81.3022 72.9648 81.5822 73 81.87 73C86.985 73 91.7995 71.7183 96 69.4715V63.5403C92.9967 65.6338 89.4899 67.0663 85.6902 67.6519C85.6979 67.76 85.7236 67.863 85.7236 67.9736Z" fill="#81C784"/>
<path d="M98.5 61.715C97.715 62.4463 96.88 63.1232 96 63.7432V69.5735C96.8625 69.1066 97.6925 68.5927 98.5 68.0443C99.3725 67.4514 100.2 66.8017 101 66.1198V59C100.237 59.9709 99.4025 60.8751 98.5 61.715ZM86 68.1011C86 67.9924 85.975 67.8911 85.9675 67.7849C84.7525 67.9751 83.5175 68.1011 82.25 68.1011C80.115 68.1011 78.0525 67.7972 76.085 67.2735C76.0375 67.5453 76 67.817 76 68.1011C76 70.4703 77.69 72.4466 79.9425 72.9259C80.43 72.9654 80.9225 72.9852 81.4175 73C83.98 72.7875 86 70.6877 86 68.1011Z" fill="#2E7D32"/>
<path d="M43.606 52C45.5798 51.1042 47.7369 50.5842 50 50.4862C47.8868 48.9288 45.975 47.091 44.3346 45H38C39.5759 47.5865 41.4644 49.9308 43.606 52Z" fill="#81C784"/>
<path d="M43.9171 45.1822C42.6324 43.5939 41.533 41.8501 40.6062 40H35C35.7439 41.819 36.6605 43.5421 37.6914 45.1822H43.9171ZM67.2688 63.3745C66.2277 62.5557 65.2553 61.6514 64.3565 60.672C62.828 59.0033 61.5254 57.1247 60.4971 55.07C58.3059 54.6683 56.2036 54.0154 54.2206 53.124C52.5499 52.3726 50.9655 51.4579 49.4853 50.4008C47.2611 50.494 45.141 50.9889 43.2011 51.8414C47.124 55.513 51.9075 58.2208 57.2167 59.62C59.8649 63.9394 63.544 67.5333 67.9289 70C67.967 69.5051 68 69.0076 68 68.5023C68 66.7196 67.7385 65.0017 67.2688 63.3745Z" fill="#2E7D32"/>
<path d="M65.5 5C59.5326 5 53.8097 7.37053 49.5901 11.5901C45.3705 15.8097 43 21.5326 43 27.5C43 33.4674 45.3705 39.1903 49.5901 43.4099C53.8097 47.6295 59.5326 50 65.5 50C71.4674 50 77.1903 47.6295 81.4099 43.4099C85.6295 39.1903 88 33.4674 88 27.5C88 21.5326 85.6295 15.8097 81.4099 11.5901C77.1903 7.37053 71.4674 5 65.5 5Z" fill="#FFE082"/>
<path d="M57.0028 28.1L59.0689 15H73.1985V19.4025H63.4252L62.4022 24.825C62.8255 24.585 64.3297 23.9275 67.0332 23.9275C69.5905 23.9275 71.5583 24.65 72.9314 26.1C74.3071 27.5525 75 29.0975 75 31.715C75 33.295 74.6321 34.7275 73.8939 36.0125C73.1532 37.2975 72.1201 38.28 70.7873 38.965C69.4494 39.655 67.8797 40 66.0606 40C64.4456 40 62.9263 39.6775 61.5128 39.0425C60.0968 38.4075 58.9882 37.5325 58.1845 36.42C57.3833 35.3075 56.9877 34.255 57.0003 32.8575H62.3997C62.4602 33.7625 62.7625 34.2675 63.3042 34.8C63.8484 35.33 65.141 35.595 66.0279 35.595C68.0334 35.595 69.6006 34.1725 69.6006 31.3325C69.6006 28.7025 68.4567 27.5 66.0001 27.5C64.6094 27.5 63.085 28.4275 62.3997 29.285L57.0028 28.1Z" fill="#FFC107"/>
</svg>
