<svg width="125" height="124" viewBox="0 0 125 124" fill="none" xmlns="http://www.w3.org/2000/svg">
<path d="M113.5 39.432C112.75 39.494 112.062 39.432 111.437 39.06C109.375 38.006 108.937 34.968 108.375 31.434C108.25 30.752 108.187 30.07 108.062 29.388C107.75 27.59 106.687 26.35 105.125 26.04C102 25.358 97.9375 28.024 94.3125 33.232L92.5625 31.992C98.5625 23.436 103.687 23.498 105.625 23.932C108.062 24.49 109.75 26.35 110.25 29.016C110.375 29.698 110.5 30.442 110.562 31.124C111 33.79 111.375 36.58 112.5 37.2C112.937 37.448 113.687 37.324 114.625 36.89L115.562 38.812C114.812 39.122 114.125 39.37 113.5 39.432Z" fill="#7E373A"/>
<path d="M120.875 36.208C121.063 38.006 119.813 39.618 118 39.804C116.188 39.99 114.563 38.75 114.375 36.952C114.188 35.154 115.438 33.542 117.25 33.356C119.063 33.17 120.688 34.41 120.875 36.208Z" fill="#7E373A"/>
<path d="M10.625 38.068C10.8125 39.866 9.56254 41.478 7.75004 41.664C5.93754 41.85 4.31254 40.61 4.12504 38.812C3.93754 37.014 5.18754 35.402 7.00004 35.216C8.75004 35.03 10.375 36.27 10.625 38.068Z" fill="#7E373A"/>
<path d="M13.5 43.09C11.8125 43.276 10 42.532 8.4375 40.92L9.9375 39.432C11.1875 40.672 12.5 41.23 13.5625 40.92C14.9375 40.548 16.125 38.874 16.875 36.208C17.625 33.418 18.9375 29.946 22.0625 28.21C24.8125 26.66 28.5625 26.66 33.5625 28.086L32.9375 30.132C28.5625 28.83 25.3125 28.83 23.0625 30.07C21.125 31.124 19.8125 33.232 18.875 36.766C17.6875 41.168 15.625 42.594 14.0625 42.966C13.9375 43.028 13.75 43.09 13.5 43.09Z" fill="#7E373A"/>
<path d="M32.1251 23.002C30.6876 17.732 33.3751 13.392 38.1251 13.516C43.9376 13.702 60.6251 14.88 72.7501 16.182C84.8751 17.484 91.2501 18.414 93.7501 21.886C96.3126 25.358 93.7501 29.636 93.7501 29.636C93.7501 29.636 95.1251 32.178 93.3751 34.224C93.3751 34.224 93.1251 56.854 92.6251 74.772C92.1251 92.69 93.3126 106.02 81.8751 109.182C70.4376 112.344 31.7501 109.058 24.3751 101.68C17.0001 94.302 21.9376 78.802 23.1876 68.2C24.8751 53.506 31.9376 27.838 31.9376 27.838C31.9376 27.838 30.8126 25.048 32.1251 23.002Z" fill="#FCAC3C"/>
<path d="M92.3125 29.698C92.3125 29.698 91.375 29.574 89.6875 29.264L89.875 28.21C91.5625 28.458 92.5625 28.644 92.5625 28.644L92.3125 29.698ZM85.6875 28.706C84.5 28.52 83.1875 28.334 81.6875 28.148L81.8125 27.094C83.25 27.28 84.625 27.466 85.8125 27.652L85.6875 28.706ZM77.6875 27.714C76.4375 27.528 75.0625 27.404 73.6875 27.218L73.8125 26.164C75.1875 26.35 76.5625 26.474 77.8125 26.66L77.6875 27.714ZM69.75 26.784C68.4375 26.66 67.125 26.474 65.75 26.35L65.875 25.296C67.25 25.42 68.5625 25.606 69.875 25.73L69.75 26.784ZM61.75 25.916C60.4375 25.792 59.125 25.668 57.75 25.544L57.8125 24.49C59.1875 24.614 60.5 24.738 61.8125 24.862L61.75 25.916ZM53.75 25.234C52.4375 25.11 51.0625 25.048 49.75 24.924L49.8125 23.87C51.1875 23.932 52.5 24.056 53.8125 24.18L53.75 25.234ZM45.75 24.738C44.4375 24.676 43.0625 24.614 41.75 24.552L41.8125 23.498C43.1875 23.56 44.5 23.622 45.8125 23.684L45.75 24.738ZM37.6875 24.366C36.375 24.304 35 24.304 33.6875 24.242V23.188C35 23.188 36.375 23.25 37.6875 23.312V24.366Z" fill="#7E373A"/>
<path d="M92.0625 33.232C92 33.232 91.0625 33.046 89.4375 32.798L89.625 31.744C92.75 32.178 92.75 32.178 92.75 32.674H91.6875H92.25L92.0625 33.232ZM85.4375 32.24C84.25 32.054 82.9375 31.868 81.4375 31.682L81.5625 30.628C83 30.814 84.375 31 85.5625 31.186L85.4375 32.24ZM77.5 31.248C76.25 31.062 74.875 30.938 73.5 30.752L73.625 29.698C75 29.884 76.375 30.008 77.625 30.194L77.5 31.248ZM69.5 30.318C68.1875 30.194 66.875 30.008 65.5 29.884L65.625 28.83C67 28.954 68.3125 29.14 69.625 29.264L69.5 30.318ZM61.5625 29.45C60.25 29.326 58.9375 29.202 57.5625 29.078L57.625 28.024C59 28.148 60.3125 28.272 61.625 28.396L61.5625 29.45ZM53.5625 28.768C52.25 28.644 50.875 28.582 49.5625 28.458L49.625 27.404C51 27.466 52.3125 27.59 53.625 27.714L53.5625 28.768ZM45.5 28.272C44.1875 28.21 42.8125 28.148 41.5 28.086L41.5625 27.032C42.875 27.094 44.25 27.156 45.5625 27.218L45.5 28.272ZM37.5 27.9C36.1875 27.838 34.8125 27.838 33.5 27.776V26.722C34.8125 26.722 36.1875 26.784 37.5 26.846V27.9Z" fill="#7E373A"/>
<path d="M70.125 64.356C72.8125 73.656 67.5 75.516 65.3125 76.012L64.1875 71.734L58.1875 79.732L66.4375 84.444L66.8125 80.6C66.8125 80.6 81 77.748 75.375 63.736L70.125 64.356Z" fill="#F7DEBC"/>
<path d="M62.5625 60.388L72.4375 60.76L69.625 51.212L66.875 54.002C66.875 54.002 56.125 42.78 47.875 55.986L52.125 59.396C52.125 59.396 57.0625 51.46 64.375 57.35L62.5625 60.388Z" fill="#F7DEBC"/>
<path d="M48.375 68.572C46.875 76.012 56.875 76.508 56.875 76.508L54.9375 81.158C54.9375 81.158 40.75 80.91 42.4375 66.712L39.8125 64.666L48.5625 60.76L52.375 69.316L48.375 68.572Z" fill="#F7DEBC"/>
</svg>
